<svg width="24" height="25" viewBox="0 0 24 25" fill="none" xmlns="http://www.w3.org/2000/svg">
<path d="M22.4 13.4497H3.2V4.47198C3.19907 4.13388 3.26538 3.79896 3.39509 3.48661C3.5248 3.17425 3.71533 2.89066 3.95565 2.65225L3.97565 2.6323C4.35228 2.25715 4.83584 2.00714 5.36026 1.91643C5.88468 1.82571 6.42438 1.89871 6.90565 2.12546C6.45114 2.87928 6.26222 3.76301 6.36892 4.63621C6.47562 5.50941 6.87181 6.32199 7.49455 6.94483L8.0421 7.49103L7.03425 8.49643L8.16555 9.62492L9.1734 8.61957L14.7579 3.04906L15.7657 2.04371L14.6344 0.915165L13.6264 1.92052L13.0789 1.37432C12.4233 0.72221 11.5592 0.320223 10.637 0.238413C9.71481 0.156604 8.79309 0.400159 8.03245 0.926637C7.23036 0.421349 6.27983 0.203213 5.33702 0.308062C4.39422 0.412912 3.51519 0.834511 2.84435 1.5036L2.82435 1.52355C2.43497 1.90984 2.12627 2.36933 1.91611 2.87543C1.70595 3.38153 1.59851 3.92418 1.6 4.47198V13.4497H0V15.0457H1.6V16.5769C1.59997 16.7056 1.62077 16.8334 1.6616 16.9554L3.15 21.4093C3.22943 21.6478 3.38216 21.8552 3.5865 22.0022C3.79084 22.1491 4.0364 22.2281 4.2883 22.2279H4.9333L4.35 24.2229H6.01665L6.6 22.2279H17.005L17.605 24.2229H19.275L18.675 22.2279H19.7115C19.9634 22.2281 20.209 22.1492 20.4134 22.0022C20.6178 21.8553 20.7706 21.6478 20.85 21.4093L22.3383 16.9554C22.3791 16.8334 22.4 16.7056 22.4 16.5769V15.0457H24V13.4497H22.4ZM8.626 2.50287C9.0668 2.06412 9.66407 1.81772 10.2868 1.81772C10.9095 1.81772 11.5068 2.06412 11.9476 2.50287L12.495 3.04906L9.17355 6.36228L8.626 5.81619C8.18619 5.37647 7.93918 4.78068 7.93918 4.15953C7.93918 3.53838 8.18619 2.94259 8.626 2.50287ZM20.8 16.5121L19.4234 20.6318H4.5766L3.2 16.5121V15.0457H20.8V16.5121Z" fill="#EEEEEE"/>
</svg>
