<svg width="24" height="25" viewBox="0 0 24 25" fill="none" xmlns="http://www.w3.org/2000/svg">
<path d="M20 5.24616H9.6V13.6614H8.4923V10.801C8.49102 9.18029 8.02905 7.6265 7.20777 6.48049C6.38648 5.33448 5.27294 4.68985 4.11145 4.68802H1.6V0.2229H0V24.2229H1.6V20.892L22.4 21.1242V24.2229H24V10.8276C23.9988 9.34779 23.577 7.92912 22.8271 6.88276C22.0772 5.83641 21.0605 5.24784 20 5.24616ZM1.6 6.92058H4.11145C4.84872 6.92174 5.55556 7.33092 6.07689 8.05836C6.59822 8.7858 6.89147 9.77208 6.8923 10.8008V13.6613H1.6V6.92058ZM22.4 18.8916L1.6 18.6594V15.894H22.4V18.8916ZM22.4 13.6614H11.2V7.47871H20C20.6363 7.47973 21.2463 7.83288 21.6963 8.46069C22.1462 9.0885 22.3993 9.9397 22.4 10.8276V13.6614Z" fill="#EEEEEE"/>
</svg>
