<svg width="32" height="33" viewBox="0 0 32 33" fill="none" xmlns="http://www.w3.org/2000/svg">
<path fill-rule="evenodd" clip-rule="evenodd" d="M0 16.5709L0.00162526 16.4106L0.00497677 16.2502L0.0100632 16.0898L0.0168758 15.9294L0.0254316 15.769L0.0357136 15.6086L0.0477389 15.4483L0.0614905 15.2879L0.0769852 15.1277L0.0942148 14.9675L0.113179 14.8075L0.13387 14.6475L0.156303 14.4876L0.180472 14.3279L0.206366 14.1684L0.233996 14.0091L0.26336 13.8499L0.294442 13.6911L0.327259 13.5323L0.361802 13.3739L0.398071 13.2156L0.436051 13.0577L0.475764 12.9001L0.517179 12.7427L0.56032 12.5858L0.605162 12.4291L0.651722 12.2727L0.699983 12.1168L0.749945 11.9613L0.8016 11.8062L0.854956 11.6515L0.910004 11.4971L0.966737 11.3433L1.02515 11.1899L1.08524 11.0371L1.147 10.8847L1.21043 10.7328L1.27553 10.5815L1.34228 10.4307L1.41069 10.2805L1.48074 10.1308L1.55244 9.98178L1.62577 9.83338L1.70073 9.68554L1.77732 9.53834L1.85553 9.39186L1.93534 9.24602L2.01677 9.10082L2.09978 8.95642L2.18439 8.81266L2.27059 8.66962L2.35835 8.52738L2.44769 8.38586L2.53859 8.24514L2.63104 8.10522L2.72504 7.9661L2.82057 7.82786L2.91764 7.69034L3.01623 7.55378L3.11633 7.41802L3.21793 7.28314L3.32102 7.14922L3.4256 7.0161L3.53165 6.88402L3.63918 6.75282L3.74816 6.62253L3.85859 6.49325L3.97045 6.36494L4.08374 6.23763L4.19845 6.11132L4.31457 5.98603L4.43208 5.86178L4.55097 5.73858L4.67125 5.61643L4.79288 5.49536L4.91587 5.37538L5.0402 5.25649L5.16586 5.13871L5.29284 5.02206L5.42113 4.90655L5.55071 4.7922L5.68157 4.679L5.81371 4.56698L5.94711 4.45615L6.08175 4.34651L6.21763 4.2381L6.35472 4.1309L6.49303 4.02494L6.63253 3.92023L6.77322 3.81678L6.91503 3.7146L7.05811 3.6137L7.20227 3.5141L7.34754 3.4158L7.4939 3.31882L7.64143 3.22316L7.78998 3.12883L7.93962 3.03586L8.09036 2.94425L8.24219 2.85401L8.39495 2.76514L8.5488 2.67766L8.70358 2.59159L8.85937 2.50693L9.01617 2.42368L9.17389 2.34186L9.33255 2.26148L9.49213 2.18255L9.65263 2.10507L9.81406 2.02906L9.97634 1.95453L10.1395 1.88147L10.3035 1.80991L10.4684 1.73986L10.634 1.6713L10.8005 1.60427L10.9677 1.53877L11.1357 1.47479L11.3045 1.41235L11.474 1.35147L11.6442 1.29214L11.8152 1.23438L11.9868 1.17818L12.1591 1.12355L12.332 1.07052L12.5055 1.01907L12.6797 0.969224L12.8546 0.920984L13.0299 0.874352L13.2059 0.829328L13.3824 0.785928L13.5594 0.74416L13.7369 0.704032L13.915 0.665528L14.0936 0.62868L14.2725 0.593472L14.452 0.55992L14.6318 0.528032L14.8121 0.4978L14.9928 0.46924L15.1739 0.442352L15.3553 0.417136L15.537 0.393608L15.7191 0.37176L15.9015 0.3516L16.0841 0.33312L16.267 0.316352L16.4502 0.301272L16.6336 0.287888L16.8172 0.276216L17.8045 0.222656L17.8608 4.74159L17.8931 4.74124L18.0294 4.74106L18.1657 4.74214L18.3021 4.7445L18.4386 4.74814L18.575 4.75306L18.7115 4.75923L18.848 4.7667L18.9845 4.77544L19.1209 4.78545L19.2574 4.79674L19.3938 4.80932L19.5301 4.82318L19.6663 4.8383L19.8024 4.85471L19.9384 4.8724L20.0744 4.89136L20.2101 4.91161L20.3458 4.93313L20.4812 4.95592L20.6165 4.97999L20.7516 5.00534L20.8864 5.03196L21.0211 5.05985L21.1555 5.08901L21.2897 5.11943L21.4237 5.15113L21.5573 5.1841L21.6906 5.21832L21.8237 5.25381L21.9565 5.29055L22.0888 5.32855L22.2209 5.36781L22.3526 5.40832L22.484 5.45008L22.6149 5.49308L22.7454 5.53733L22.8756 5.58281L23.0053 5.62954L23.1346 5.67749L23.2634 5.72668L23.3917 5.7771L23.5196 5.82873L23.647 5.88158L23.7739 5.93566L23.9002 5.99094L24.026 6.04742L24.1513 6.1051L24.276 6.16399L24.4002 6.22407L24.5237 6.28534L24.6467 6.34778L24.769 6.41142L24.8907 6.47622L25.0118 6.54218L25.1322 6.60931L25.252 6.67762L25.371 6.74706L25.4894 6.81762L25.6071 6.88938L25.724 6.96218L25.8403 7.03618L25.9558 7.1113L26.0705 7.18746L26.1845 7.26482L26.2977 7.34322L26.41 7.42274L26.5217 7.50338L26.6324 7.58506L26.7424 7.66786L26.8515 7.75162L26.9597 7.8365L27.0671 7.9225L27.1736 8.00946L27.2793 8.09746L27.3841 8.1865L27.4878 8.27658L27.5907 8.3677L27.6927 8.45978L27.7938 8.55282L27.8938 8.6469L27.9929 8.74194L28.091 8.83802L28.1882 8.93498L28.2843 9.0329L28.3795 9.13178L28.4735 9.23162L28.5666 9.33234L28.6586 9.43402L28.7496 9.53658L28.8395 9.64002L28.9283 9.74442L29.0161 9.84962L29.1027 9.9557L29.1883 10.0627L29.2728 10.1705L29.356 10.2791L29.4382 10.3887L29.5192 10.499L29.5992 10.61L29.6779 10.7219L29.7555 10.8347L29.8318 10.9482L29.9069 11.0624L29.981 11.1774L30.0537 11.2931L30.1253 11.4096L30.1956 11.5268L30.2648 11.6447L30.3326 11.7634L30.3992 11.8827L30.4646 12.0027L30.5287 12.1233L30.5915 12.2446L30.6531 12.3666L30.7133 12.4891L30.7723 12.6123L30.83 12.7362L30.8863 12.8606L30.9413 12.9856L30.995 13.1111L31.0474 13.2373L31.0984 13.3639L31.1481 13.4912L31.1965 13.6189L31.2435 13.7472L31.2891 13.8759L31.3334 14.0052L31.3763 14.1349L31.4178 14.2651L31.4579 14.3957L31.4966 14.5267L31.5339 14.6583L31.5699 14.7902L31.6043 14.9224L31.6375 15.0551L31.6691 15.1882L31.6994 15.3216L31.7283 15.4553L31.7556 15.5895L31.7816 15.7239L31.8061 15.8586L31.8292 15.9935L31.8509 16.1288L31.8711 16.2644L31.8898 16.4002L31.907 16.5363L31.9229 16.6725L31.9372 16.809L31.9501 16.9456L31.9615 17.0825L31.9715 17.2195L31.9799 17.3567L31.9869 17.494L31.9924 17.6315L31.9964 17.7691L31.999 17.9067L32 18.0445L31.9996 18.1823L31.9976 18.3203L31.9942 18.4583L31.9893 18.5962L31.9829 18.7342L31.9751 18.8722L31.9656 19.0102L31.9548 19.1482L31.9424 19.2861L31.9285 19.424L31.9132 19.5619L31.8963 19.6995L31.8779 19.8372L31.8581 19.9747L31.8367 20.1122L31.8139 20.2495L31.7896 20.3866L31.7637 20.5235L31.7364 20.6603L31.7076 20.797L31.6773 20.9334L31.6455 21.0695L31.6122 21.2055L31.5775 21.3412L31.5412 21.4767L31.5035 21.6118L31.4643 21.7467L31.4237 21.8812L31.3816 22.0155L31.3379 22.1495L31.2928 22.283L31.2463 22.4163L31.1983 22.5491L31.1488 22.6815L31.0979 22.8136L31.0456 22.9452L30.9917 23.0764L30.9365 23.2072L30.8798 23.3375L30.8217 23.4674L30.7622 23.5968L30.7012 23.7256L30.6388 23.854L30.575 23.9819L30.5098 24.1091L30.4431 24.2359L30.3752 24.3621L30.3057 24.4878L30.2349 24.6127L30.1627 24.7372L30.0892 24.861L30.0142 24.9842L29.9379 25.1067L29.8603 25.2286L29.7813 25.3499L29.7009 25.4703L29.6192 25.5902L29.5363 25.7093L29.4519 25.8277L29.3662 25.9454L29.2792 26.0623L29.191 26.1785L29.1014 26.2939L29.0105 26.4086L28.9184 26.5224L28.825 26.6354L28.7304 26.7476L28.6344 26.859L28.5373 26.9695L28.4388 27.0791L28.3392 27.1879L28.2383 27.2959L28.1363 27.4029L28.033 27.5091L27.9286 27.6143L27.8229 27.7186L27.7161 27.8219L27.6081 27.9243L27.4989 28.0257L27.3887 28.1262L27.2773 28.2257L27.1648 28.3242L27.0511 28.4217L26.9363 28.5181L26.8205 28.6135L26.7036 28.708L26.5856 28.8014L26.4665 28.8936L26.3464 28.9849L26.2253 29.0751L26.1031 29.1641L25.9799 29.252L25.8557 29.3389L25.7305 29.4247L25.6043 29.5092L25.4771 29.5927L25.3491 29.6751L25.22 29.7562L25.09 29.8362L24.9592 29.9151L24.8274 29.9927L24.6947 30.0691L24.561 30.1443L24.4265 30.2184L24.2913 30.2912L24.155 30.3627L24.0181 30.4331L23.8803 30.5022L23.7416 30.57L23.6022 30.6367L23.462 30.7019L23.321 30.7659L23.1793 30.8287L23.0368 30.8902L22.8936 30.9503L22.7497 31.0091L22.6051 31.0667L22.4599 31.1229L22.3139 31.1778L22.1673 31.2313L22.02 31.2835L21.8722 31.3343L21.7236 31.3839L21.5746 31.4319L21.4249 31.4787L21.2746 31.5241L21.1238 31.5681L20.9725 31.6107L20.8206 31.6519L20.6682 31.6918L20.5154 31.7303L20.3619 31.7672L20.2082 31.8028L20.0539 31.8371L19.8991 31.8698L19.744 31.9011L19.5885 31.9311L19.4325 31.9595L19.2762 31.9866L19.1196 32.0121L18.9625 32.0363L18.8052 32.059L18.6475 32.0802L18.4896 32.0999L18.3314 32.1183L18.1728 32.1351L18.0141 32.1504L17.8551 32.1643L17.6959 32.1767L17.5365 32.1877L17.3769 32.1971L17.2171 32.2051L17.0572 32.2116L16.8972 32.2166L16.7369 32.2201L16.5767 32.2221L16.4163 32.2227L16.2558 32.2217L16.0953 32.2192L15.9347 32.2153L15.7741 32.2098L15.6136 32.2028L15.453 32.1944L15.2925 32.1844L15.1319 32.173L14.9715 32.16L14.811 32.1455L14.6507 32.1296L14.4905 32.1122L14.3304 32.0932L14.1704 32.0727L14.0107 32.0507L13.851 32.0273L13.6916 32.0023L13.5324 31.9759L13.3733 31.9479L13.2146 31.9185L13.056 31.8876L12.8978 31.8551L12.7397 31.8212L12.5821 31.7859L12.4247 31.749L12.2676 31.7106L12.1109 31.6707L11.9546 31.6295L11.7987 31.5867L11.643 31.5424L11.4879 31.4967L11.3332 31.4495L11.1789 31.4008L11.0251 31.3507L10.8717 31.2991L10.7189 31.2461L10.5666 31.1916L10.4147 31.1357L10.2635 31.0783L10.1128 31.0195L9.96261 30.9593L9.81305 30.8977L9.66408 30.8347L9.51571 30.7702L9.368 30.7043L9.22097 30.637L9.07461 30.5683L8.92884 30.4982L8.78383 30.4267L8.63958 30.3539L8.49592 30.2797L8.3531 30.2041L8.21103 30.1271L8.06973 30.0488L7.92918 29.9691L7.78947 29.8882L7.65053 29.8058L7.51242 29.7222L7.37524 29.6371L7.23882 29.5509L7.10333 29.4632L6.96876 29.3743L6.83503 29.2842L6.70224 29.1927L6.57038 29.0999L6.43947 29.0059L6.30952 28.9106L6.18055 28.8141L6.05256 28.7163L5.92557 28.6173L5.7996 28.5171L5.67466 28.4156L5.55076 28.313L5.42792 28.2091L5.30616 28.104L5.18547 27.9979L5.06588 27.8904L4.9474 27.7819L4.83005 27.6722L4.71382 27.5614L4.59875 27.4495L4.48483 27.3363L4.37209 27.2222L4.26054 27.1069L4.15019 26.9905L4.04104 26.8731L3.93312 26.7546L3.82643 26.635L3.72099 26.5144L3.61682 26.3927L3.5139 26.2701L3.41228 26.1464L3.31194 26.0218L3.21291 25.8961L3.11519 25.7695L3.0188 25.6419L2.92375 25.5133L2.83005 25.3839L2.7377 25.2535L2.64673 25.1221L2.55714 24.9899L2.46893 24.8568L2.38212 24.7228L2.29673 24.588L2.21276 24.4523L2.13022 24.3158L2.04912 24.1784L1.96947 24.0403L1.89128 23.9012L1.81454 23.7615L1.7393 23.621L1.66553 23.4797L1.59327 23.3377L1.52251 23.1949L1.45325 23.0515L1.38552 22.9072L1.31932 22.7624L1.25465 22.6168L1.19154 22.4707L1.12996 22.3238L1.06995 22.1763L1.01152 22.0282L0.954653 21.8795L0.899368 21.7302L0.845667 21.5803L0.793566 21.4299L0.743074 21.2789L0.694181 21.1274L0.646914 20.9754L0.601263 20.8228L0.557238 20.6698L0.514846 20.5163L0.474097 20.3624L0.43499 20.208L0.397541 20.0532L0.361743 19.8979L0.327604 19.7423L0.295133 19.5863L0.264328 19.43L0.2352 19.2733L0.207756 19.1163L0.181987 18.9589L0.157912 18.8012L0.135528 18.6432L0.114846 18.485L0.0958569 18.3265L0.0785685 18.1678L0.0629895 18.0089L0.04912 17.8497L0.03696 17.6903L0.026518 17.5308L0.0177938 17.3711L0.0107874 17.2113L0.00549899 17.0514L0.00193686 16.8913L0.000109422 16.7311L0 16.5709ZM16.3184 4.83625L16.28 1.75609L16.2435 1.75943L16.0761 1.77636L15.9091 1.79482L15.7422 1.81486L15.576 1.83638L15.4099 1.85946L15.244 1.8841L15.0787 1.91024L14.9134 1.93794L14.7491 1.96709L14.5844 1.99786L14.421 2.03002L14.2573 2.06381L14.0944 2.09902L13.9317 2.13581L13.7698 2.174L13.6083 2.21373L13.4472 2.25494L13.2866 2.29763L13.1267 2.34176L12.9672 2.38741L12.8084 2.43447L12.6501 2.48303L12.4926 2.53294L12.3354 2.58442L12.179 2.63727L12.0234 2.69153L11.8682 2.74726L11.7139 2.80436L11.5603 2.86283L11.4072 2.92281L11.2549 2.98414L11.1033 3.04688L10.9526 3.11094L10.8026 3.17638L10.6535 3.24315L10.5048 3.31139L10.3573 3.38088L10.2105 3.45172L10.0646 3.5239L9.91949 3.59741L9.77541 3.67218L9.63192 3.74833L9.48935 3.8258L9.34804 3.90438L9.20716 3.98449L9.06762 4.06566L8.92901 4.1481L8.79107 4.2319L8.65423 4.31691L8.5184 4.40317L8.38383 4.49044L8.24977 4.57926L8.11705 4.66902L7.98535 4.76003L7.85457 4.85229L7.72497 4.94564L7.59655 5.04011L7.46888 5.13591L7.34265 5.23262L7.21735 5.33061L7.09322 5.42966L6.97019 5.52986L6.84842 5.63102L6.72756 5.73346L6.60808 5.83681L6.48963 5.94135L6.37254 6.04678L6.25652 6.15334L6.14179 6.26087L6.02824 6.36946L5.91578 6.47918L5.8048 6.58964L5.69507 6.70106L5.58631 6.81378L5.47906 6.92722L5.37312 7.04146L5.26827 7.1569L5.16494 7.27306L5.06276 7.39026L4.96195 7.50826L4.86247 7.62722L4.76428 7.74698L4.66754 7.86754L4.57206 7.98898L4.47789 8.11138L4.38525 8.23434L4.29384 8.35834L4.20388 8.48298L4.11532 8.60842L4.02808 8.73466L3.94232 8.86162L3.85797 8.98922L3.77503 9.11762L3.69357 9.24666L3.61346 9.3765L3.53478 9.50706L3.45765 9.6381L3.3819 9.76986L3.3076 9.90234L3.23481 10.0354L3.16345 10.1691L3.09363 10.3032L3.02525 10.438L2.95839 10.5734L2.89299 10.7094L2.82913 10.8458L2.76672 10.9828L2.70584 11.1203L2.64651 11.2583L2.58867 11.3967L2.53234 11.5357L2.47756 11.6751L2.42429 11.8149L2.37261 11.9551L2.32241 12.0958L2.27377 12.2368L2.22669 12.3783L2.18116 12.5199L2.13715 12.6622L2.09474 12.8046L2.05387 12.9474L2.01455 13.0904L1.9768 13.2339L1.94062 13.3775L1.90601 13.5214L1.87297 13.6655L1.8415 13.8099L1.8116 13.9545L1.78328 14.0993L1.75653 14.2443L1.73136 14.3895L1.70777 14.5347L1.68576 14.6802L1.66533 14.8258L1.64648 14.9715L1.6292 15.1172L1.61352 15.2631L1.59941 15.4091L1.58688 15.555L1.57593 15.7011L1.56657 15.8471L1.55878 15.9931L1.55257 16.1392L1.54794 16.2852L1.54489 16.4312L1.54341 16.5771L1.54351 16.7231L1.54518 16.8688L1.54842 17.0146L1.55323 17.1602L1.5596 17.3056L1.56755 17.451L1.57705 17.5961L1.58812 17.7411L1.60074 17.8859L1.61492 18.0306L1.63064 18.1751L1.64792 18.3192L1.66675 18.4632L1.68711 18.6069L1.70901 18.7503L1.73245 18.8935L1.75741 19.0363L1.78392 19.1789L1.81193 19.3211L1.84147 19.463L1.87251 19.6046L1.90507 19.7457L1.93913 19.8865L1.97469 20.0269L2.01175 20.1669L2.0503 20.3065L2.09032 20.4455L2.13183 20.5843L2.17481 20.7225L2.21926 20.8603L2.26517 20.9975L2.31252 21.1343L2.36133 21.2705L2.41159 21.4062L2.46328 21.5414L2.51638 21.6759L2.57094 21.81L2.62688 21.9435L2.68424 22.0763L2.74301 22.2086L2.80316 22.3402L2.86471 22.4712L2.92763 22.6016L2.99192 22.7313L3.05757 22.8603L3.12459 22.9887L3.19294 23.1163L3.26264 23.2433L3.33367 23.3695L3.40602 23.4951L3.47968 23.6198L3.55464 23.7438L3.63091 23.8671L3.70846 23.9895L3.78726 24.1111L3.86738 24.232L3.94872 24.352L4.03133 24.4713L4.11517 24.5897L4.20024 24.7072L4.28652 24.8239L4.37404 24.9398L4.46273 25.0547L4.55264 25.1688L4.64369 25.2819L4.73596 25.3942L4.82933 25.5055L4.92388 25.6159L5.0196 25.7254L5.11638 25.8339L5.21432 25.9414L5.31334 26.0479L5.41349 26.1535L5.5147 26.2581L5.61695 26.3617L5.72029 26.4643L5.82467 26.5659L5.93012 26.6664L6.03656 26.7659L6.14405 26.8643L6.2525 26.9617L6.36195 27.0581L6.4724 27.1534L6.58381 27.2475L6.6961 27.3406L6.80943 27.4326L6.92371 27.5235L7.03874 27.6132L7.15486 27.7019L7.27175 27.7894L7.38956 27.8758L7.50821 27.9611L7.62779 28.0451L7.74813 28.128L7.86931 28.2098L7.99124 28.2903L8.11411 28.3698L8.23764 28.4479L8.36211 28.525L8.48716 28.6008L8.61305 28.6754L8.73971 28.7488L8.86695 28.821L8.99503 28.8919L9.12371 28.9616L9.25314 29.0301L9.38316 29.0973L9.51394 29.1633L9.64522 29.228L9.77718 29.2915L9.90981 29.3537L10.043 29.4147L10.1768 29.4743L10.3111 29.5327L10.4459 29.5898L10.5814 29.6456L10.7173 29.7001L10.8538 29.7534L10.9907 29.8053L11.1282 29.8559L11.2661 29.9052L11.4044 29.9532L11.5432 29.9999L11.6824 30.0452L11.8221 30.0893L11.9621 30.132L12.1024 30.1734L12.2433 30.2135L12.3843 30.2522L12.5258 30.2895L12.6676 30.3256L12.8097 30.3603L12.9521 30.3937L13.0947 30.4257L13.2376 30.4564L13.3808 30.4857L13.5241 30.5137L13.6678 30.5403L13.8116 30.5656L13.9556 30.5895L14.0998 30.6121L14.2441 30.6333L14.3886 30.6531L14.5333 30.6716L14.678 30.6888L14.8228 30.7046L14.9677 30.719L15.1128 30.7321L15.2579 30.7438L15.4029 30.7542L15.548 30.7631L15.6932 30.7708L15.8383 30.7771L15.9834 30.782L16.1285 30.7856L16.2736 30.7878L16.4185 30.7887L16.5635 30.7882L16.7083 30.7863L16.853 30.7832L16.9976 30.7787L17.1421 30.7728L17.2864 30.7656L17.4305 30.7571L17.5745 30.7472L17.7183 30.736L17.8619 30.7235L18.0052 30.7095L18.1484 30.6943L18.2912 30.6779L18.4339 30.66L18.5762 30.6408L18.7182 30.6203L18.86 30.5986L19.0014 30.5755L19.1426 30.5511L19.2833 30.5254L19.4237 30.4984L19.5637 30.4701L19.7033 30.4406L19.8425 30.4097L19.9814 30.3775L20.1197 30.3442L20.2577 30.3095L20.3951 30.2735L20.5322 30.2363L20.6687 30.1979L20.8048 30.1582L20.9403 30.1173L21.0754 30.0751L21.2099 30.0317L21.3437 29.9871L21.4771 29.9411L21.6099 29.8941L21.7421 29.8458L21.8738 29.7963L22.0047 29.7457L22.1351 29.6938L22.2648 29.6407L22.3939 29.5865L22.5223 29.5311L22.6501 29.4746L22.7772 29.4168L22.9035 29.358L23.0292 29.2979L23.1541 29.2368L23.2783 29.1746L23.4019 29.1111L23.5245 29.0467L23.6464 28.9811L23.7675 28.9144L23.888 28.8466L24.0074 28.7778L24.1263 28.7078L24.2441 28.6368L24.3612 28.5647L24.4775 28.4916L24.5929 28.4174L24.7073 28.3423L24.8209 28.2661L24.9336 28.1889L25.0455 28.1107L25.1565 28.0315L25.2664 27.9514L25.3756 27.8701L25.4836 27.788L25.5907 27.705L25.6971 27.6209L25.8024 27.5359L25.9065 27.45L26.0099 27.3631L26.1121 27.2755L26.2134 27.1868L26.3137 27.0973L26.4128 27.007L26.5111 26.9156L26.6083 26.8235L26.7043 26.7305L26.7994 26.6367L26.8933 26.5421L26.9861 26.4467L27.0781 26.3503L27.1687 26.2533L27.2584 26.1554L27.3468 26.0568L27.4342 25.9574L27.5204 25.8573L27.6055 25.7564L27.6895 25.6547L27.7723 25.5525L27.8541 25.4494L27.9345 25.3457L28.0139 25.2412L28.0922 25.136L28.169 25.0304L28.2449 24.9239L28.3194 24.817L28.3928 24.7092L28.4652 24.6008L28.5361 24.492L28.6058 24.3826L28.6744 24.2723L28.7416 24.1618L28.8077 24.0505L28.8727 23.9387L28.9362 23.8265L28.9986 23.7135L29.0597 23.6001L29.1194 23.4866L29.178 23.3721L29.2354 23.2572L29.2914 23.142L29.3461 23.0263L29.3996 22.9102L29.4517 22.7937L29.5027 22.6766L29.5523 22.5591L29.6005 22.4416L29.6475 22.3232L29.6931 22.2048L29.7376 22.0859L29.7807 21.9667L29.8225 21.8471L29.8628 21.7275L29.9021 21.607L29.9398 21.4867L29.9763 21.3659L30.0115 21.2451L30.0453 21.1237L30.0777 21.0023L30.109 20.8806L30.1388 20.7586L30.1673 20.6365L30.1945 20.5141L30.2203 20.3918L30.2448 20.2689L30.268 20.1463L30.2898 20.0233L30.3102 19.9002L30.3293 19.7771L30.3472 19.6537L30.3636 19.5305L30.3788 19.4067L30.3925 19.2835L30.405 19.1598L30.416 19.0363L30.4258 18.9125L30.4342 18.7891L30.4413 18.6654L30.447 18.5415L30.4514 18.418L30.4545 18.2947L30.4562 18.171L30.4566 18.0475L30.4557 17.9241L30.4534 17.8008L30.4498 17.6775L30.4448 17.5547L30.4386 17.4315L30.431 17.3087L30.4221 17.186L30.4119 17.0637L30.4003 16.9411L30.3875 16.8191L30.3734 16.6971L30.3579 16.5754L30.3411 16.4538L30.3231 16.3326L30.3037 16.2113L30.283 16.0906L30.2611 15.9703L30.2379 15.8499L30.2133 15.7299L30.1875 15.6103L30.1604 15.4907L30.1322 15.372L30.1025 15.2531L30.0717 15.1351L30.0395 15.0168L30.0061 14.8995L29.9715 14.7823L29.9357 14.6653L29.8986 14.5491L29.8603 14.4332L29.8206 14.3175L29.78 14.2026L29.7379 14.0878L29.6947 13.9737L29.6503 13.8599L29.6047 13.7468L29.5578 13.6339L29.5098 13.5217L29.4607 13.4102L29.4104 13.2991L29.3587 13.1883L29.3063 13.0784L29.2523 12.9687L29.1974 12.8599L29.1413 12.7516L29.084 12.6437L29.0257 12.5367L28.9661 12.4301L28.9054 12.324L28.844 12.219L28.7811 12.1142L28.7172 12.0103L28.6521 11.9068L28.5863 11.8044L28.519 11.7023L28.4509 11.6011L28.3816 11.5003L28.3114 11.4005L28.2403 11.3015L28.1678 11.203L28.0945 11.1053L28.0202 11.0083L27.9448 10.9123L27.8685 10.8167L27.7912 10.7222L27.713 10.6283L27.6338 10.5352L27.5536 10.443L27.4724 10.3515L27.3903 10.2608L27.3074 10.171L27.2236 10.082L27.1388 9.99386L27.0529 9.90642L26.9666 9.82018L26.8788 9.73442L26.7907 9.64986L26.7015 9.56594L26.6115 9.48306L26.5204 9.40082L26.429 9.31986L26.3363 9.23954L26.2429 9.16018L26.1491 9.08186L26.0542 9.00442L25.9583 8.9277L25.8619 8.8521L25.7648 8.77746L25.6669 8.70378L25.5682 8.63098L25.469 8.55938L25.3687 8.48834L25.268 8.41866L25.1666 8.34986L25.0643 8.28194L24.9617 8.21514L24.8579 8.14914L24.7542 8.0845L24.6493 8.02058L24.544 7.95778L24.4379 7.89594L24.3314 7.83514L24.2243 7.77546L24.1167 7.7169L24.0082 7.65906L23.8996 7.60258L23.7901 7.54698L23.6803 7.4925L23.5699 7.43914L23.4589 7.38674L23.3475 7.33538L23.2357 7.28522L23.1233 7.23602L23.0106 7.18802L22.8973 7.14098L22.78 7.09362L22.6697 7.05034L22.5549 7.0065L22.4403 6.96402L22.3248 6.92234L22.2093 6.88202L22.0932 6.84266L21.9769 6.8045L21.8601 6.7673L21.7432 6.73138L21.6259 6.6965L21.5082 6.66274L21.3905 6.63018L21.2723 6.59862L21.1536 6.56816L21.0351 6.53894L20.9164 6.51082L20.7969 6.48374L20.6778 6.45791L20.5581 6.43311L20.4385 6.40951L20.3184 6.38698L20.1985 6.36564L20.0782 6.3454L19.9581 6.32634L19.8373 6.30834L19.7169 6.29153L19.5962 6.27583L19.4754 6.26126L19.3545 6.24784L19.2337 6.23557L19.1128 6.22442L18.9917 6.2144L18.8707 6.20551L18.7495 6.19775L18.6286 6.19114L18.5077 6.18566L18.3864 6.1813L18.2657 6.17809L18.1448 6.17599L18.0239 6.17503L17.9029 6.17519L17.8787 6.17546L17.9168 9.23322L17.9854 9.2329L18.0738 9.23338L18.1621 9.23466L18.2505 9.23682L18.339 9.23978L18.4275 9.24362L18.516 9.24826L18.6046 9.2537L18.6932 9.26002L18.7818 9.26714L18.8704 9.27514L18.9589 9.28394L19.0475 9.29362L19.136 9.3041L19.2244 9.31538L19.3128 9.32762L19.4012 9.34058L19.4894 9.35442L19.5777 9.36914L19.6658 9.38466L19.7538 9.40106L19.8417 9.41826L19.9295 9.43626L20.0172 9.45514L20.1047 9.4749L20.1921 9.49546L20.2792 9.51682L20.3663 9.53906L20.4532 9.5621L20.54 9.58602L20.6265 9.61074L20.7128 9.63626L20.7989 9.66266L20.8848 9.68986L20.9705 9.71794L21.0559 9.74682L21.1411 9.7765L21.226 9.80698L21.3107 9.83834L21.3951 9.8705L21.4792 9.90346L21.563 9.9373L21.6466 9.97186L21.7298 10.0073L21.8126 10.0435L21.8952 10.0805L21.9774 10.1183L22.0593 10.157L22.1408 10.1964L22.222 10.2367L22.3027 10.2776L22.3832 10.3195L22.4632 10.362L22.5427 10.4054L22.622 10.4495L22.7008 10.4945L22.7791 10.5402L22.857 10.5867L22.9345 10.6339L23.0115 10.6819L23.0881 10.7307L23.1642 10.7802L23.2398 10.8305L23.3149 10.8815L23.3896 10.9332L23.4637 10.9858L23.5373 11.039L23.6104 11.093L23.6829 11.1477L23.7549 11.2031L23.8264 11.2592L23.8973 11.3161L23.9677 11.3736L24.0376 11.4319L24.1068 11.4908L24.1754 11.5505L24.2434 11.6108L24.3108 11.6719L24.3776 11.7335L24.4438 11.7959L24.5094 11.859L24.5743 11.9227L24.6387 11.9871L24.7022 12.0521L24.7652 12.1178L24.8275 12.1841L24.8892 12.251L24.9501 12.3186L25.0104 12.3867L25.0701 12.4555L25.1289 12.525L25.1871 12.595L25.2445 12.6656L25.3013 12.7368L25.3573 12.8087L25.4125 12.881L25.4671 12.9539L25.5208 13.0275L25.5739 13.1015L25.6261 13.1762L25.6776 13.2513L25.7283 13.3271L25.7782 13.4033L25.8274 13.48L25.8757 13.5573L25.9232 13.6351L25.9699 13.7134L26.0158 13.7922L26.0609 13.8715L26.1052 13.9512L26.1486 14.0315L26.1912 14.1122L26.2329 14.1934L26.2739 14.275L26.3139 14.357L26.353 14.4395L26.3913 14.5224L26.4288 14.6058L26.4653 14.6895L26.5011 14.7737L26.5358 14.8583L26.5697 14.9431L26.6027 15.0285L26.6348 15.1142L26.666 15.2003L26.6963 15.2867L26.7256 15.3735L26.7541 15.4605L26.7816 15.5479L26.8083 15.6357L26.8339 15.7238L26.8586 15.8122L26.8824 15.9008L26.9053 15.9898L26.9272 16.079L26.9481 16.1685L26.9681 16.2583L26.9871 16.3483L27.0051 16.4385L27.0222 16.5291L27.0384 16.6198L27.0536 16.7107L27.0677 16.8019L27.0809 16.8931L27.0931 16.9847L27.1044 17.0764L27.1146 17.1683L27.1239 17.2603L27.1322 17.3526L27.1395 17.4449L27.1458 17.5374L27.151 17.6299L27.1553 17.7227L27.1586 17.8155L27.1608 17.9084L27.1621 18.0015L27.1624 18.0946L27.1616 18.1877L27.1598 18.2809L27.1571 18.3742L27.1533 18.4675L27.1485 18.5608L27.1427 18.6542L27.1358 18.7476L27.128 18.841L27.1191 18.9343L27.1092 19.0277L27.0983 19.121L27.0864 19.2143L27.0734 19.3075L27.0595 19.4007L27.0445 19.4939L27.0285 19.5869L27.0115 19.6799L26.9933 19.7727L26.9743 19.8655L26.9542 19.9582L26.9331 20.0507L26.911 20.1431L26.8878 20.2354L26.8637 20.3275L26.8385 20.4195L26.8123 20.5112L26.7851 20.6028L26.7569 20.6942L26.7277 20.7854L26.6974 20.8764L26.6661 20.9672L26.6339 21.0577L26.6006 21.148L26.5664 21.2381L26.5311 21.3279L26.4948 21.4174L26.4576 21.5067L26.4194 21.5956L26.3801 21.6843L26.3399 21.7727L26.2987 21.8607L26.2565 21.9485L26.2133 22.0359L26.1692 22.1229L26.124 22.2096L26.0779 22.2959L26.0308 22.3819L25.9828 22.4675L25.9338 22.5527L25.8839 22.6375L25.833 22.7219L25.7811 22.8058L25.7283 22.8894L25.6746 22.9724L25.62 23.0551L25.5643 23.1373L25.5078 23.2191L25.4503 23.3003L25.3919 23.3811L25.3326 23.4614L25.2724 23.5411L25.2113 23.6204L25.1493 23.6992L25.0864 23.7775L25.0226 23.8551L24.9579 23.9323L24.8923 24.0089L24.8259 24.0849L24.7586 24.1604L24.6904 24.2353L24.6213 24.3096L24.5514 24.3833L24.4807 24.4564L24.4091 24.5289L24.3368 24.6008L24.2635 24.672L24.1895 24.7427L24.1145 24.8126L24.0389 24.8819L23.9624 24.9506L23.8851 25.0185L23.8071 25.0859L23.7282 25.1524L23.6486 25.2183L23.5682 25.2836L23.4871 25.3481L23.4051 25.4119L23.3225 25.475L23.2391 25.5373L23.1549 25.5989L23.0701 25.6598L22.9846 25.7199L22.8983 25.7792L22.8114 25.8379L22.7237 25.8956L22.6354 25.9527L22.5463 26.0089L22.4566 26.0643L22.3662 26.119L22.2753 26.1728L22.1836 26.2258L22.0914 26.278L21.9984 26.3294L21.9049 26.3799L21.8108 26.4295L21.716 26.4784L21.6207 26.5264L21.5248 26.5735L21.4283 26.6198L21.3313 26.6651L21.2337 26.7097L21.1355 26.7533L21.0368 26.796L20.9376 26.8379L20.8379 26.8788L20.7376 26.9188L20.6369 26.9579L20.5357 26.9962L20.4339 27.0335L20.3318 27.0699L20.2291 27.1053L20.1261 27.1398L20.0225 27.1733L19.9186 27.2059L19.8141 27.2375L19.7094 27.2683L19.6042 27.298L19.4986 27.3267L19.3927 27.3546L19.2863 27.3814L19.1796 27.4072L19.0726 27.4321L18.9652 27.456L18.8574 27.4789L18.7495 27.5008L18.6411 27.5217L18.5325 27.5416L18.4236 27.5606L18.3144 27.5785L18.2049 27.5954L18.0952 27.6112L17.9853 27.6261L17.875 27.6399L17.7646 27.6528L17.6541 27.6646L17.5432 27.6754L17.4323 27.6851L17.3211 27.6939L17.2098 27.7015L17.0983 27.7082L16.9866 27.7138L16.8749 27.7183L16.7629 27.7219L16.6509 27.7243L16.5389 27.7258L16.4266 27.7262L16.3144 27.7255L16.2021 27.7238L16.0897 27.7211L15.9773 27.7172L15.8648 27.7123L15.7523 27.7064L15.6399 27.6995L15.5274 27.6915L15.415 27.6823L15.3026 27.6722L15.1901 27.661L15.0778 27.6487L14.9656 27.6355L14.8533 27.6211L14.7412 27.6056L14.6292 27.5891L14.5173 27.5716L14.4055 27.553L14.2938 27.5334L14.1823 27.5127L14.071 27.4908L13.9597 27.468L13.8488 27.4442L13.7379 27.4192L13.6273 27.3932L13.5169 27.3662L13.4067 27.3381L13.2967 27.309L13.187 27.2788L13.0776 27.2476L12.9683 27.2154L12.8595 27.182L12.7509 27.1477L12.6425 27.1123L12.5346 27.0759L12.4269 27.0385L12.3196 27L12.2126 26.9605L12.106 26.92L11.9997 26.8784L11.8939 26.8359L11.7885 26.7923L11.6835 26.7477L11.5788 26.7021L11.4746 26.6555L11.3709 26.6079L11.2675 26.5593L11.1646 26.5097L11.0623 26.4591L10.9604 26.4075L10.859 26.355L10.7581 26.3015L10.6578 26.2469L10.5579 26.1915L10.4586 26.135L10.3598 26.0775L10.2616 26.0192L10.164 25.9599L10.067 25.8996L9.97061 25.8383L9.87478 25.7762L9.77954 25.7131L9.68497 25.6491L9.59099 25.5842L9.49768 25.5183L9.40497 25.4515L9.31301 25.3839L9.22173 25.3153L9.13112 25.2458L9.04118 25.1755L8.95192 25.1042L8.86341 25.0321L8.77566 24.9591L8.68859 24.8852L8.60227 24.8105L8.5168 24.735L8.432 24.6586L8.34796 24.5813L8.26476 24.5032L8.1824 24.4243L8.1008 24.3446L8.01996 24.2641L7.93996 24.1827L7.86088 24.1007L7.78257 24.0177L7.70509 23.934L7.62855 23.8495L7.55276 23.7643L7.47798 23.6783L7.40396 23.5915L7.33095 23.5041L7.25878 23.4159L7.18754 23.3269L7.11722 23.2372L7.04775 23.1469L6.97928 23.0558L6.91183 22.964L6.84522 22.8715L6.77962 22.7784L6.715 22.6847L6.65134 22.5902L6.58867 22.4951L6.52699 22.3993L6.46631 22.3029L6.40664 22.2059L6.34798 22.1083L6.29033 22.0101L6.23373 21.9112L6.17816 21.8119L6.12362 21.7119L6.07014 21.6113L6.01772 21.5102L5.96636 21.4085L5.91607 21.3063L5.86686 21.2035L5.81872 21.1003L5.77168 20.9966L5.72573 20.8923L5.68088 20.7875L5.63715 20.6823L5.59453 20.5766L5.55302 20.4704L5.51263 20.3639L5.47338 20.2567L5.43527 20.1493L5.39829 20.0414L5.36246 19.9331L5.32778 19.8244L5.29426 19.7153L5.26189 19.6059L5.23069 19.496L5.20067 19.3858L5.17182 19.2753L5.14414 19.1644L5.11766 19.0532L5.09235 18.9417L5.06824 18.8299L5.04533 18.7179L5.02361 18.6055L5.0031 18.4928L4.9838 18.3799L4.9657 18.2668L4.94882 18.1535L4.93315 18.0399L4.91871 17.926L4.90549 17.812L4.89349 17.6979L4.88272 17.5835L4.87319 17.4689L4.86488 17.3543L4.85781 17.2394L4.85198 17.1244L4.84739 17.0094L4.84405 16.8942L4.84195 16.7789L4.84109 16.6635L4.84148 16.548L4.84312 16.4325L4.84601 16.317L4.85015 16.2014L4.85555 16.0857L4.8622 15.9701L4.8701 15.8544L4.87926 15.7388L4.88967 15.6231L4.90134 15.5076L4.91427 15.392L4.92845 15.2766L4.9439 15.1611L4.9606 15.0458L4.97855 14.9305L4.99777 14.8154L5.01823 14.7003L5.03996 14.5855L5.06294 14.4707L5.08717 14.356L5.11266 14.2416L5.1394 14.1273L5.16739 14.0132L5.19663 13.8993L5.22712 13.7856L5.25885 13.6722L5.29183 13.5589L5.32605 13.4459L5.36152 13.3332L5.39822 13.2207L5.43617 13.1085L5.47534 12.9967L5.51575 12.8851L5.55739 12.7738L5.60025 12.6628L5.64434 12.5522L5.68964 12.4419L5.73617 12.332L5.78391 12.2225L5.83286 12.1134L5.88302 12.0046L5.93438 11.8963L5.98694 11.7883L6.0407 11.6808L6.09565 11.5738L6.15179 11.4672L6.20911 11.3611L6.26761 11.2555L6.32728 11.1503L6.38813 11.0456L6.45015 10.9415L6.51331 10.8378L6.57764 10.7347L6.64312 10.6322L6.70974 10.5302L6.77752 10.4287L6.8464 10.3279L6.91646 10.2276L6.98754 10.1279L7.05987 10.0289L7.13322 9.93042L7.20766 9.83258L7.28328 9.73546L7.35992 9.6389L7.43773 9.54306L7.51655 9.44786L7.59646 9.35338L7.67739 9.25962L7.75941 9.1665L7.84253 9.0741L7.92665 8.98242L8.01179 8.89154L8.09802 8.80138L8.18518 8.71194L8.27343 8.6233L8.36269 8.53538L8.45288 8.44834L8.54408 8.36202L8.63629 8.2765L8.72952 8.19186L8.82366 8.10794L8.91874 8.02498L9.01482 7.94274L9.11183 7.86146L9.20968 7.78098L9.30855 7.70138L9.40834 7.62266L9.50897 7.54482L9.61053 7.46786L9.71301 7.39186L9.81634 7.31674L9.9205 7.24258L10.0256 7.1693L10.1315 7.09698L10.2381 7.02562L10.3458 6.95522L10.4541 6.88578L10.5633 6.81738L10.6733 6.74986L10.7841 6.68338L10.8957 6.61789L11.008 6.5534L11.1211 6.48993L11.2349 6.42748L11.3495 6.36606L11.4648 6.30566L11.5807 6.24633L11.6974 6.18804L11.8148 6.13081L11.9329 6.07464L12.0516 6.01954L12.171 5.96553L12.2911 5.9126L12.4118 5.86076L12.5331 5.81002L12.6551 5.76038L12.7776 5.71186L12.9007 5.66446L13.0243 5.61818L13.1486 5.57302L13.2734 5.52901L13.3988 5.48614L13.5247 5.44441L13.6511 5.40383L13.778 5.36442L13.9053 5.32617L14.0333 5.28908L14.1616 5.25317L14.2904 5.21844L14.4196 5.18489L14.5493 5.15253L14.6794 5.12136L14.8099 5.09139L14.9408 5.06263L15.0721 5.03506L15.2037 5.00871L15.3357 4.98358L15.468 4.95966L15.6007 4.93697L15.7336 4.9155L15.8669 4.89526L16.0005 4.87625L16.1343 4.85848L16.2684 4.84194L16.3184 4.83625ZM16.375 9.37154L16.3364 6.28017L16.2265 6.29476L16.1084 6.31158L15.9901 6.32953L15.8727 6.3485L15.755 6.36862L15.638 6.38978L15.5212 6.41203L15.4048 6.43532L15.2887 6.45971L15.1728 6.48518L15.0573 6.5117L14.9422 6.53927L14.8273 6.56794L14.7169 6.59658L14.5992 6.62834L14.4856 6.6601L14.3725 6.6929L14.26 6.72666L14.1478 6.76154L14.036 6.79746L13.9246 6.83434L13.8139 6.87218L13.7036 6.91114L13.5938 6.95098L13.4844 6.99194L13.3758 7.03378L13.2673 7.07674L13.1596 7.12058L13.0524 7.16538L12.9459 7.21114L12.8397 7.25794L12.7341 7.3057L12.6295 7.35426L12.525 7.40394L12.4216 7.45442L12.3183 7.50602L12.2161 7.55826L12.114 7.61178L12.013 7.66586L11.9126 7.72098L11.8127 7.77706L11.7136 7.83394L11.615 7.89186L11.5174 7.95042L11.4202 8.01002L11.324 8.07042L11.2284 8.13162L11.1335 8.19378L11.0392 8.25682L10.9459 8.32042L10.8532 8.38514L10.7613 8.45058L10.6701 8.51682L10.5799 8.58378L10.4902 8.6517L10.4015 8.72026L10.3136 8.78962L10.2264 8.85994L10.1402 8.93074L10.0547 9.0025L9.96994 9.07498L9.88615 9.1481L9.80328 9.22194L9.72101 9.29666L9.63992 9.37186L9.55958 9.44786L9.48 9.52466L9.40143 9.60202L9.32371 9.68018L9.24691 9.7589L9.17103 9.83826L9.096 9.91834L9.02181 9.99914L8.94888 10.0803L8.87663 10.1623L8.80531 10.245L8.73499 10.3281L8.66568 10.4118L8.59714 10.4963L8.52968 10.5811L8.46316 10.6667L8.39764 10.7527L8.33305 10.8394L8.26956 10.9264L8.20699 11.0141L8.14535 11.1023L8.08472 11.1911L8.02518 11.2802L7.96665 11.3699L7.90905 11.4602L7.85246 11.5507L7.79697 11.6419L7.7424 11.7335L7.68901 11.8253L7.63655 11.9178L7.58501 12.0107L7.53474 12.1039L7.48539 12.1976L7.43714 12.2917L7.38989 12.386L7.34375 12.4809L7.29861 12.576L7.25457 12.6715L7.21154 12.7674L7.16968 12.8635L7.12884 12.96L7.08901 13.0569L7.05027 13.154L7.01272 13.2514L6.97608 13.3491L6.94072 13.447L6.90627 13.5452L6.87301 13.6437L6.84076 13.7424L6.80968 13.8413L6.77962 13.9404L6.75074 14.0397L6.72287 14.1393L6.69613 14.239L6.67048 14.3389L6.64595 14.439L6.62249 14.5391L6.60013 14.6395L6.57891 14.74L6.55875 14.8406L6.5397 14.9414L6.52178 15.0422L6.50493 15.1431L6.4892 15.244L6.47456 15.3451L6.46104 15.4463L6.44861 15.5475L6.43728 15.6487L6.42706 15.7499L6.41794 15.8512L6.40992 15.9524L6.403 16.0538L6.39717 16.1551L6.39245 16.2563L6.38883 16.3575L6.38629 16.4586L6.38486 16.5597L6.38451 16.6608L6.38526 16.7618L6.38711 16.8627L6.39004 16.9635L6.39405 17.0641L6.39915 17.1647L6.40533 17.2652L6.41259 17.3655L6.42093 17.4657L6.43035 17.5657L6.44084 17.6655L6.4524 17.7652L6.46503 17.8647L6.47873 17.9641L6.49348 18.0631L6.50931 18.1621L6.52617 18.2607L6.5441 18.3591L6.56308 18.4574L6.5831 18.5552L6.60417 18.653L6.62627 18.7503L6.64942 18.8475L6.67357 18.9443L6.69878 19.0408L6.725 19.1371L6.75225 19.233L6.78046 19.3285L6.80977 19.4238L6.84 19.5187L6.87133 19.6132L6.90358 19.7075L6.93684 19.8012L6.97112 19.8946L7.00632 19.9876L7.04253 20.0803L7.07975 20.1725L7.1179 20.2643L7.15697 20.3556L7.19705 20.4466L7.23806 20.5371L7.28008 20.6271L7.32295 20.7167L7.36682 20.8057L7.41162 20.8943L7.45726 20.9825L7.50392 21.0701L7.55141 21.1573L7.59983 21.2439L7.64918 21.33L7.69937 21.4156L7.75048 21.5007L7.80244 21.5851L7.85533 21.6691L7.90905 21.7525L7.96362 21.8353L8.01903 21.9175L8.07537 21.9993L8.13238 22.0803L8.1904 22.1608L8.24909 22.2407L8.30872 22.3199L8.36909 22.3986L8.43032 22.4766L8.4923 22.5539L8.55512 22.6307L8.61861 22.7068L8.68295 22.7823L8.74804 22.8571L8.8139 22.9312L8.88051 23.0046L8.94787 23.0775L9.01592 23.1495L9.08472 23.2209L9.15419 23.2915L9.22442 23.3615L9.29533 23.4308L9.36699 23.4994L9.43924 23.5672L9.51225 23.6343L9.58594 23.7007L9.66013 23.7663L9.73516 23.8313L9.81069 23.8954L9.8869 23.9587L9.96379 24.0214L10.0413 24.0832L10.1193 24.1443L10.198 24.2046L10.2772 24.2641L10.3571 24.3228L10.4375 24.3808L10.5185 24.4379L10.5999 24.4943L10.6819 24.5498L10.7645 24.6045L10.8477 24.6584L10.9314 24.7115L11.0155 24.7638L11.1001 24.8152L11.1853 24.8659L11.2708 24.9156L11.3569 24.9646L11.4435 25.0127L11.5304 25.0599L11.6179 25.1063L11.7056 25.1518L11.7939 25.1965L11.8826 25.2403L11.9716 25.2832L12.0611 25.3254L12.1511 25.3666L12.2413 25.407L12.3318 25.4464L12.4228 25.4851L12.514 25.5227L12.6056 25.5595L12.6976 25.5955L12.7899 25.6306L12.8824 25.6647L12.9752 25.698L13.0684 25.7304L13.1618 25.7619L13.2554 25.7925L13.3494 25.8223L13.4435 25.851L13.5379 25.8789L13.6326 25.9059L13.7274 25.9319L13.8224 25.9571L13.9176 25.9814L14.0131 26.0048L14.1086 26.0272L14.2044 26.0487L14.3003 26.0694L14.3964 26.0891L14.4925 26.1079L14.5888 26.1258L14.6853 26.1427L14.7817 26.1588L14.8784 26.174L14.9751 26.1882L15.0718 26.2015L15.1687 26.2139L15.2655 26.2255L15.3624 26.236L15.4594 26.2457L15.5564 26.2544L15.6534 26.2623L15.7504 26.2691L15.8474 26.2752L15.9443 26.2803L16.0413 26.2845L16.1383 26.2878L16.2351 26.2902L16.3319 26.2916L16.4286 26.2922L16.5253 26.2919L16.6219 26.2906L16.7184 26.2885L16.8147 26.2855L16.9111 26.2815L17.0072 26.2767L17.1032 26.271L17.199 26.2643L17.2947 26.2568L17.3902 26.2484L17.4856 26.2391L17.5809 26.229L17.6759 26.2179L17.7707 26.206L17.8653 26.1933L17.9597 26.1796L18.0538 26.1651L18.1476 26.1497L18.2413 26.1334L18.3347 26.1163L18.4279 26.0983L18.5208 26.0795L18.6133 26.0598L18.7056 26.0393L18.7976 26.0179L18.8893 25.9957L18.9806 25.9727L19.0717 25.9487L19.1624 25.924L19.2527 25.8985L19.3427 25.8722L19.4323 25.845L19.5216 25.817L19.6104 25.7882L19.6989 25.7586L19.787 25.7282L19.8747 25.697L19.9619 25.665L20.0488 25.6322L20.1352 25.5986L20.2212 25.5643L20.3067 25.5291L20.3918 25.4933L20.4764 25.4567L20.5606 25.4192L20.6443 25.3811L20.7273 25.3423L20.8102 25.3025L20.8923 25.2622L20.9741 25.221L21.0551 25.1792L21.1357 25.1367L21.2159 25.0934L21.2954 25.0494L21.3745 25.0047L21.453 24.9593L21.5308 24.9132L21.6083 24.8664L21.6849 24.8191L21.7611 24.7709L21.8368 24.722L21.9117 24.6726L21.986 24.6226L22.06 24.5717L22.1331 24.5204L22.2056 24.4683L22.2776 24.4156L22.3487 24.3624L22.4195 24.3084L22.4896 24.2539L22.5587 24.1988L22.6276 24.1429L22.6956 24.0867L22.7629 24.0299L22.8297 23.9722L22.8956 23.9143L22.9609 23.8556L23.0256 23.7964L23.0894 23.7367L23.1527 23.6764L23.2152 23.6156L23.2771 23.5543L23.338 23.4924L23.3984 23.43L23.4581 23.3671L23.5169 23.3039L23.5752 23.2399L23.6325 23.1755L23.6891 23.1107L23.7451 23.0453L23.8002 22.9797L23.8546 22.9134L23.9082 22.8467L23.9611 22.7795L24.0131 22.712L24.0643 22.6442L24.1149 22.5756L24.1646 22.5069L24.2136 22.4377L24.2618 22.368L24.309 22.2982L24.3556 22.2278L24.4013 22.157L24.4463 22.0859L24.4904 22.0145L24.5338 21.9426L24.5762 21.8707L24.6179 21.798L24.6588 21.7253L24.6987 21.6523L24.738 21.5787L24.7763 21.5052L24.8139 21.431L24.8504 21.357L24.8865 21.2822L24.9213 21.2075L24.9556 21.1323L24.989 21.0571L25.0214 20.9815L25.0531 20.9057L25.0839 20.8296L25.1137 20.7535L25.1429 20.677L25.171 20.6003L25.1984 20.5235L25.2249 20.4465L25.2506 20.3692L25.2755 20.2919L25.2994 20.2144L25.3224 20.1367L25.3446 20.0589L25.366 19.9809L25.3864 19.9028L25.4061 19.8247L25.4248 19.7463L25.4427 19.6679L25.4598 19.5894L25.4759 19.5109L25.4912 19.4323L25.5056 19.3533L25.5192 19.2747L25.5319 19.1958L25.5437 19.1168L25.5546 19.038L25.5647 18.9591L25.574 18.8799L25.5823 18.8012L25.5899 18.7219L25.5965 18.643L25.6023 18.5642L25.6072 18.4851L25.6113 18.4063L25.6145 18.3275L25.6168 18.2484L25.6183 18.1699L25.6189 18.091L25.6187 18.0123L25.6177 17.9337L25.6157 17.8554L25.613 17.7769L25.6093 17.6986L25.6049 17.6206L25.5996 17.5423L25.5934 17.4643L25.5865 17.3867L25.5787 17.3089L25.57 17.2315L25.5605 17.154L25.5502 17.0769L25.5391 16.9999L25.5272 16.9229L25.5144 16.8463L25.5008 16.7699L25.4864 16.6936L25.4712 16.6176L25.4551 16.5415L25.4382 16.466L25.4206 16.3907L25.4022 16.3155L25.3829 16.2405L25.3629 16.1661L25.3421 16.0915L25.3205 16.0175L25.2981 15.9435L25.2749 15.8701L25.251 15.7967L25.2263 15.7237L25.2008 15.6511L25.1747 15.5788L25.1475 15.5066L25.1199 15.435L25.0914 15.3635L25.0621 15.2926L25.0322 15.2218L25.0014 15.1513L24.97 15.0815L24.9378 15.0117L24.9049 14.9425L24.8713 14.8737L24.837 14.8051L24.8019 14.7368L24.7662 14.6692L24.7297 14.6018L24.6926 14.535L24.6548 14.4686L24.6163 14.4023L24.5772 14.3367L24.5373 14.2715L24.4968 14.2067L24.4555 14.1423L24.4138 14.0785L24.3712 14.0149L24.3282 13.952L24.2844 13.8895L24.24 13.8275L24.1949 13.7659L24.1492 13.7048L24.1031 13.6443L24.0561 13.5841L24.0087 13.5246L23.9605 13.4655L23.912 13.407L23.8627 13.3488L23.8128 13.2913L23.7624 13.2343L23.7114 13.1777L23.66 13.1219L23.6077 13.0663L23.5552 13.0115L23.502 12.9571L23.4484 12.9035L23.394 12.8502L23.3394 12.7976L23.284 12.7454L23.2282 12.6939L23.172 12.6431L23.1153 12.5927L23.0579 12.5428L23.0002 12.4937L22.942 12.4451L22.8831 12.397L22.8243 12.3498L22.7645 12.3028L22.7045 12.2567L22.644 12.2111L22.5831 12.166L22.5218 12.1217L22.4602 12.0781L22.3979 12.0349L22.3352 11.9923L22.2724 11.9506L22.2088 11.9092L22.1453 11.8688L22.0813 11.8288L22.0168 11.7895L21.9518 11.7507L21.8868 11.7128L21.8211 11.6754L21.7554 11.6387L21.689 11.6026L21.6227 11.5673L21.5559 11.5326L21.4887 11.4984L21.4212 11.465L21.3536 11.4323L21.2856 11.4002L21.2172 11.3687L21.1487 11.338L21.0801 11.308L21.0107 11.2785L20.9416 11.2499L20.8721 11.2219L20.8022 11.1944L20.7322 11.1678L20.6621 11.1419L20.5917 11.1166L20.5209 11.0919L20.4503 11.068L20.3792 11.0447L20.308 11.0222L20.2368 11.0003L20.1653 10.9792L20.0938 10.9587L20.0217 10.9389L19.9499 10.9199L19.8779 10.9015L19.8057 10.8838L19.7335 10.8667L19.6609 10.8504L19.5885 10.8348L19.516 10.8199L19.4433 10.8057L19.3704 10.7921L19.2979 10.7794L19.2248 10.7672L19.152 10.7558L19.0788 10.745L19.0061 10.735L18.9327 10.7255L18.8599 10.717L18.7868 10.709L18.7137 10.7017L18.6407 10.6951L18.5675 10.6892L18.4947 10.684L18.4214 10.6795L18.3485 10.6757L18.2757 10.6726L18.2024 10.6701L18.1298 10.6683L18.057 10.6673L17.9843 10.6669L17.9347 10.6671L17.9723 13.6874L17.9948 13.6875L18.0365 13.688L18.0784 13.689L18.1203 13.6903L18.1623 13.6921L18.2043 13.6943L18.2463 13.6968L18.2884 13.6999L18.3305 13.7033L18.3727 13.7071L18.4149 13.7114L18.4571 13.716L18.4994 13.7211L18.5416 13.7267L18.5838 13.7326L18.6261 13.739L18.6684 13.7458L18.7106 13.753L18.7528 13.7607L18.795 13.7687L18.8372 13.7772L18.8794 13.7861L18.9216 13.7955L18.9636 13.8052L19.0057 13.8154L19.0477 13.826L19.0897 13.8371L19.1316 13.8485L19.1735 13.8604L19.2152 13.8727L19.2569 13.8855L19.2986 13.8987L19.3401 13.9123L19.3816 13.9263L19.423 13.9408L19.4643 13.9557L19.5054 13.971L19.5465 13.9867L19.5875 14.0029L19.6283 14.0195L19.6691 14.0365L19.7096 14.0539L19.7501 14.0718L19.7905 14.0901L19.8307 14.1087L19.8707 14.1279L19.9106 14.1475L19.9503 14.1674L19.9899 14.1878L20.0293 14.2086L20.0685 14.2298L20.1076 14.2514L20.1464 14.2734L20.1852 14.2959L20.2237 14.3187L20.262 14.342L20.3 14.3656L20.3379 14.3897L20.3757 14.4143L20.4131 14.4391L20.4504 14.4644L20.4874 14.4901L20.5242 14.5162L20.5608 14.5427L20.5971 14.5695L20.6332 14.5968L20.669 14.6245L20.7045 14.6525L20.7399 14.681L20.7749 14.7098L20.8097 14.739L20.8442 14.7686L20.8784 14.7986L20.9123 14.8289L20.9459 14.8596L20.9794 14.8907L21.0124 14.9222L21.0451 14.954L21.0776 14.9862L21.1097 15.0187L21.1416 15.0517L21.1731 15.085L21.2043 15.1186L21.2351 15.1526L21.2656 15.1869L21.2958 15.2215L21.3256 15.2566L21.3551 15.2919L21.3843 15.3276L21.4131 15.3637L21.4415 15.4L21.4696 15.4367L21.4972 15.4737L21.5245 15.5111L21.5515 15.5487L21.578 15.5867L21.6042 15.625L21.6301 15.6636L21.6554 15.7025L21.6804 15.7417L21.705 15.7812L21.7292 15.821L21.753 15.8611L21.7763 15.9015L21.7993 15.9421L21.8219 15.9831L21.844 16.0243L21.8657 16.0657L21.8869 16.1075L21.9077 16.1495L21.9281 16.1918L21.948 16.2343L21.9676 16.2771L21.9866 16.3202L22.0052 16.3635L22.0233 16.407L22.041 16.4507L22.0583 16.4947L22.075 16.539L22.0913 16.5835L22.1071 16.6281L22.1224 16.673L22.1373 16.7181L22.1517 16.7634L22.1656 16.8089L22.1789 16.8547L22.1919 16.9005L22.2044 16.9466L22.2163 16.9929L22.2277 17.0394L22.2387 17.0859L22.2491 17.1328L22.259 17.1798L22.2684 17.2268L22.2773 17.2742L22.2857 17.3216L22.2936 17.3691L22.301 17.4169L22.3078 17.4647L22.3141 17.5127L22.3199 17.5609L22.3252 17.6091L22.3299 17.6575L22.3341 17.7059L22.3379 17.7546L22.341 17.8032L22.3436 17.852L22.3456 17.9009L22.3472 17.9499L22.3481 17.9989L22.3486 18.048L22.3485 18.0971L22.3479 18.1464L22.3467 18.1958L22.3449 18.2451L22.3427 18.2946L22.3398 18.344L22.3364 18.3935L22.3325 18.4431L22.3279 18.4927L22.3229 18.5423L22.3173 18.5919L22.3111 18.6415L22.3043 18.6911L22.2971 18.7408L22.2893 18.7904L22.2808 18.84L22.2718 18.8896L22.2623 18.9392L22.2522 18.9888L22.2416 19.0383L22.2303 19.0879L22.2185 19.1373L22.2062 19.1867L22.1933 19.2361L22.1798 19.2855L22.1658 19.3347L22.1512 19.3839L22.136 19.4329L22.1203 19.4819L22.104 19.5309L22.0872 19.5797L22.0697 19.6285L22.0518 19.6771L22.0332 19.7256L22.0141 19.7741L21.9944 19.8223L21.9742 19.8706L21.9534 19.9186L21.9321 19.9665L21.9102 20.0143L21.8877 20.0619L21.8648 20.1094L21.8412 20.1567L21.817 20.2039L21.7924 20.2508L21.7672 20.2976L21.7414 20.3443L21.715 20.3907L21.6882 20.4369L21.6608 20.483L21.6328 20.5288L21.6043 20.5745L21.5753 20.6199L21.5457 20.6651L21.5156 20.7101L21.485 20.7548L21.4537 20.7994L21.4221 20.8436L21.3898 20.8877L21.3571 20.9315L21.3237 20.975L21.2899 21.0183L21.2556 21.0612L21.2207 21.1039L21.1853 21.1464L21.1495 21.1886L21.1131 21.2304L21.0762 21.272L21.0388 21.3133L21.0008 21.3543L20.9624 21.3949L20.9235 21.4353L20.8841 21.4753L20.8443 21.515L20.8039 21.5544L20.763 21.5935L20.7217 21.6321L20.6799 21.6705L20.6376 21.7085L20.5948 21.7461L20.5516 21.7834L20.5079 21.8203L20.4637 21.8569L20.4191 21.8931L20.3741 21.9288L20.3285 21.9643L20.2825 21.9993L20.2361 22.0339L20.1893 22.0681L20.1421 22.1019L20.0943 22.1354L20.0462 22.1683L19.9976 22.2009L19.9487 22.2331L19.8993 22.2648L19.8495 22.2962L19.7993 22.327L19.7487 22.3575L19.6977 22.3875L19.6463 22.417L19.5945 22.446L19.5424 22.4747L19.4899 22.5028L19.4369 22.5305L19.3837 22.5578L19.33 22.5845L19.276 22.6108L19.2216 22.6366L19.167 22.6619L19.1119 22.6867L19.0565 22.7111L19.0008 22.7349L18.9448 22.7582L18.8884 22.7811L18.8317 22.8034L18.7747 22.8251L18.7174 22.8464L18.6598 22.8672L18.6019 22.8875L18.5437 22.9072L18.4852 22.9264L18.4264 22.9451L18.3674 22.9632L18.3081 22.9807L18.2486 22.9978L18.1887 23.0143L18.1287 23.0303L18.0684 23.0457L18.0078 23.0605L17.947 23.0748L17.886 23.0885L17.8248 23.1017L17.7633 23.1143L17.7016 23.1263L17.6397 23.1378L17.5777 23.1487L17.5155 23.159L17.453 23.1687L17.3904 23.1779L17.3276 23.1864L17.2647 23.1944L17.2015 23.2019L17.1383 23.2087L17.0749 23.2148L17.0113 23.2205L16.9476 23.2255L16.8838 23.2299L16.8198 23.2337L16.7558 23.237L16.6916 23.2396L16.6274 23.2416L16.5629 23.243L16.4985 23.2438L16.434 23.244L16.3694 23.2436L16.3048 23.2426L16.24 23.2409L16.1752 23.2387L16.1104 23.2358L16.0455 23.2323L15.9805 23.2282L15.9156 23.2235L15.8507 23.2181L15.7857 23.2121L15.7208 23.2055L15.6557 23.1983L15.5908 23.1904L15.5258 23.1819L15.4609 23.1729L15.396 23.1631L15.3311 23.1528L15.2663 23.1419L15.2015 23.1303L15.1368 23.1181L15.0721 23.1052L15.0075 23.0918L14.943 23.0776L14.8786 23.0629L14.8141 23.0476L14.7499 23.0316L14.6858 23.015L14.6217 22.9978L14.5579 22.9799L14.4941 22.9615L14.4304 22.9423L14.3669 22.9227L14.3035 22.9023L14.2403 22.8814L14.1773 22.8598L14.1144 22.8375L14.0517 22.8147L13.9891 22.7913L13.9268 22.7672L13.8647 22.7426L13.8028 22.7173L13.7411 22.6914L13.6795 22.6649L13.6183 22.6378L13.5571 22.61L13.4963 22.5817L13.4358 22.5527L13.3755 22.5232L13.3155 22.4931L13.2557 22.4623L13.1961 22.431L13.1369 22.3991L13.0779 22.3665L13.0193 22.3334L12.9609 22.2997L12.9029 22.2654L12.8451 22.2305L12.7877 22.1951L12.7306 22.159L12.6739 22.1223L12.6175 22.0851L12.5614 22.0474L12.5057 22.0091L12.4504 21.9701L12.3954 21.9307L12.3408 21.8907L12.2866 21.85L12.2328 21.8089L12.1793 21.7672L12.1262 21.725L12.0736 21.6822L12.0214 21.6388L11.9696 21.595L11.9182 21.5506L11.8673 21.5056L11.8168 21.4602L11.7667 21.4142L11.7171 21.3677L11.668 21.3207L11.6193 21.2731L11.571 21.2251L11.5233 21.1766L11.476 21.1275L11.4293 21.0779L11.383 21.0279L11.3373 20.9774L11.292 20.9264L11.2472 20.8749L11.2029 20.8229L11.1592 20.7705L11.116 20.7176L11.0733 20.6643L11.0312 20.6104L10.9897 20.5562L10.9487 20.5015L10.9082 20.4463L10.8683 20.3907L10.829 20.3347L10.7902 20.2782L10.7521 20.2213L10.7144 20.164L10.6775 20.1063L10.641 20.0482L10.6052 19.9897L10.57 19.9307L10.5354 19.8715L10.5014 19.8118L10.468 19.7517L10.4353 19.6912L10.4031 19.6304L10.3716 19.5693L10.3408 19.5077L10.3106 19.4459L10.281 19.3836L10.2521 19.3211L10.2238 19.2581L10.1962 19.1949L10.1693 19.1313L10.143 19.0675L10.1174 19.0032L10.0925 18.9387L10.0683 18.8739L10.0447 18.8089L10.0218 18.7435L9.99966 18.6779L9.97819 18.6119L9.95739 18.5458L9.93726 18.4793L9.9179 18.4126L9.89928 18.3456L9.88126 18.2784L9.86408 18.211L9.84758 18.1434L9.83175 18.0755L9.81667 18.0074L9.80236 17.9391L9.78872 17.8706L9.77583 17.8019L9.76371 17.733L9.75234 17.6639L9.74164 17.5947L9.73171 17.5253L9.72261 17.4557L9.71419 17.386L9.70653 17.3161L9.69962 17.2461L9.69347 17.1759L9.68808 17.1057L9.68345 17.0353L9.67958 16.9648L9.67646 16.8943L9.67411 16.8235L9.67259 16.7527L9.67183 16.6819L9.67175 16.611L9.67251 16.5399L9.67411 16.4689L9.67638 16.3978L9.67949 16.3266L9.68337 16.2554L9.688 16.1842L9.69339 16.1129L9.69962 16.0416L9.70661 15.9703L9.71436 15.8991L9.72295 15.8278L9.7323 15.7565L9.7424 15.6853L9.75335 15.6141L9.76505 15.5429L9.7776 15.4718L9.79082 15.4007L9.80488 15.3296L9.81979 15.2587L9.83545 15.1878L9.85187 15.117L9.86905 15.0463L9.88707 14.9757L9.90585 14.9051L9.92547 14.8347L9.94585 14.7645L9.96699 14.6943L9.98888 14.6243L10.0116 14.5544L10.0351 14.4847L10.0594 14.4151L10.0845 14.3457L10.1103 14.2764L10.1369 14.2074L10.1643 14.1385L10.1925 14.0699L10.2215 14.0014L10.2512 13.9331L10.2817 13.8651L10.3129 13.7972L10.345 13.7296L10.3778 13.6623L10.4114 13.5951L10.4456 13.5283L10.4808 13.4617L10.5165 13.3954L10.5532 13.3294L10.5905 13.2636L10.6286 13.1982L10.6675 13.133L10.707 13.0681L10.7474 13.0036L10.7885 12.9394L10.8302 12.8755L10.8728 12.8119L10.9161 12.7487L10.9601 12.6858L11.0048 12.6233L11.0503 12.5611L11.0964 12.4994L11.1433 12.438L11.1909 12.377L11.2392 12.3163L11.2882 12.2562L11.3379 12.1963L11.3883 12.137L11.4394 12.0779L11.4911 12.0195L11.5436 11.9613L11.5967 11.9036L11.6505 11.8464L11.705 11.7896L11.7602 11.7334L11.816 11.6775L11.8725 11.6222L11.9296 11.5673L11.9874 11.5129L12.0458 11.459L12.1048 11.4056L12.1645 11.3527L12.2248 11.3003L12.2857 11.2485L12.3473 11.1971L12.4095 11.1464L12.4723 11.0961L12.5357 11.0464L12.5996 10.9973L12.6642 10.9487L12.7293 10.9007L12.795 10.8532L12.8613 10.8063L12.9282 10.76L12.9956 10.7143L13.0636 10.6692L13.1321 10.6247L13.2013 10.5807L13.2708 10.5375L13.341 10.4948L13.4117 10.4527L13.4829 10.4113L13.5546 10.3705L13.6268 10.3303L13.6995 10.2908L13.7727 10.2519L13.8464 10.2137L13.9206 10.1762L13.9952 10.1393L14.0703 10.1031L14.1459 10.0675L14.2219 10.0327L14.2984 9.9985L14.3752 9.96498L14.4525 9.93218L14.5303 9.9001L14.6085 9.86866L14.6871 9.83794L14.766 9.80802L14.8454 9.77874L14.9251 9.75018L15.0052 9.72234L15.0857 9.6953L15.1667 9.6689L15.2478 9.6433L15.3294 9.61842L15.4113 9.59426L15.4936 9.5709L15.5761 9.54826L15.6589 9.52642L15.7421 9.5053L15.8256 9.4849L15.9094 9.4653L15.9934 9.4465L16.0778 9.4285L16.1624 9.41122L16.2472 9.39474L16.3323 9.37906L16.375 9.37154ZM17.4208 15.1798L16.4502 15.4001L16.3932 10.8325L16.3475 10.8423L16.2786 10.8577L16.2098 10.8738L16.1415 10.8904L16.0733 10.9077L16.0055 10.9256L15.9377 10.9443L15.8706 10.9633L15.8033 10.9831L15.7368 11.0034L15.6702 11.0244L15.604 11.046L15.5382 11.0682L15.4726 11.0909L15.4076 11.1142L15.3427 11.1382L15.2781 11.1627L15.2139 11.1877L15.1498 11.2135L15.0866 11.2395L15.0233 11.2664L14.9607 11.2937L14.8981 11.3217L14.8361 11.3501L14.7743 11.3791L14.7132 11.4087L14.6523 11.4387L14.5918 11.4694L14.5318 11.5005L14.4721 11.5322L14.4128 11.5644L14.3542 11.5971L14.2955 11.6304L14.2376 11.6641L14.1801 11.6983L14.123 11.7331L14.0663 11.7683L14.0101 11.8041L13.9544 11.8403L13.899 11.877L13.8443 11.9141L13.7898 11.9518L13.7359 11.9899L13.6825 12.0285L13.6296 12.0675L13.5772 12.1069L13.5253 12.1468L13.4738 12.1872L13.4227 12.2281L13.3724 12.2692L13.3224 12.3109L13.273 12.3529L13.2241 12.3954L13.1757 12.4383L13.1278 12.4816L13.0805 12.5252L13.0336 12.5694L12.9874 12.6138L12.9416 12.6587L12.8965 12.7038L12.8517 12.7495L12.8077 12.7954L12.7641 12.8417L12.7211 12.8884L12.6787 12.9353L12.6368 12.9827L12.5956 13.0303L12.5548 13.0784L12.5147 13.1267L12.475 13.1754L12.436 13.2244L12.3976 13.2736L12.3597 13.3231L12.3225 13.373L12.2858 13.4232L12.2497 13.4736L12.2142 13.5244L12.1794 13.5753L12.1451 13.6265L12.1113 13.6781L12.0783 13.7298L12.0457 13.7819L12.0139 13.834L11.9826 13.8866L11.9518 13.9393L11.9219 13.9922L11.8924 14.0453L11.8636 14.0987L11.8353 14.1523L11.8077 14.2059L11.7807 14.26L11.7544 14.3141L11.7287 14.3684L11.7035 14.4229L11.679 14.4776L11.6552 14.5323L11.6319 14.5874L11.6093 14.6425L11.5873 14.6978L11.566 14.7531L11.5453 14.8087L11.5251 14.8643L11.5057 14.9201L11.4868 14.9759L11.4686 15.032L11.451 15.0881L11.4342 15.1442L11.4179 15.2005L11.4021 15.2569L11.3871 15.3133L11.3727 15.3698L11.3589 15.4263L11.3458 15.483L11.3333 15.5397L11.3214 15.5963L11.3101 15.6531L11.2995 15.7099L11.2896 15.7667L11.2803 15.8235L11.2715 15.8804L11.2634 15.9371L11.256 15.9941L11.2492 16.0508L11.2429 16.1077L11.2374 16.1647L11.2324 16.2214L11.2281 16.2782L11.2244 16.335L11.2213 16.3916L11.2189 16.4483L11.217 16.5048L11.2158 16.5615L11.2152 16.6179L11.2152 16.6743L11.2158 16.7307L11.2171 16.787L11.2189 16.8431L11.2214 16.8992L11.2244 16.9552L11.2281 17.0111L11.2324 17.0668L11.2373 17.1225L11.2428 17.178L11.2488 17.2335L11.2555 17.2887L11.2627 17.3439L11.2706 17.3988L11.2791 17.4538L11.2881 17.5084L11.2977 17.563L11.3079 17.6175L11.3187 17.6716L11.33 17.7257L11.3419 17.7795L11.3544 17.8332L11.3675 17.8867L11.3811 17.94L11.3953 17.993L11.4101 18.046L11.4253 18.0986L11.4412 18.1511L11.4576 18.2033L11.4745 18.2554L11.492 18.3071L11.5101 18.3586L11.5287 18.41L11.5478 18.4611L11.5674 18.5118L11.5875 18.5624L11.6083 18.6127L11.6295 18.6627L11.6512 18.7125L11.6733 18.7619L11.6962 18.8112L11.7194 18.8602L11.7432 18.9088L11.7674 18.9571L11.7921 19.0051L11.8174 19.0531L11.843 19.1004L11.8692 19.1475L11.8959 19.1944L11.9231 19.2409L11.9507 19.2871L11.9788 19.3331L12.0073 19.3785L12.0364 19.4238L12.0658 19.4687L12.0957 19.5131L12.1261 19.5574L12.1568 19.6012L12.188 19.6448L12.2196 19.6878L12.2517 19.7307L12.2842 19.7731L12.3171 19.8151L12.3505 19.8568L12.3842 19.8981L12.4183 19.939L12.4528 19.9795L12.4877 20.0198L12.5229 20.0595L12.5587 20.0989L12.5948 20.1379L12.6312 20.1765L12.6681 20.2147L12.7052 20.2524L12.7427 20.2899L12.7806 20.3269L12.8188 20.3635L12.8574 20.3996L12.8963 20.4354L12.9356 20.4707L12.9752 20.5056L13.0151 20.5401L13.0553 20.5742L13.0958 20.6078L13.1367 20.641L13.1778 20.6738L13.2192 20.7061L13.261 20.738L13.3031 20.7695L13.3453 20.8004L13.3879 20.831L13.4307 20.8611L13.4739 20.8908L13.5172 20.92L13.5608 20.9488L13.6047 20.9771L13.6488 21.005L13.6931 21.0323L13.7377 21.0593L13.7827 21.0859L13.8276 21.1118L13.8728 21.1374L13.9184 21.1625L13.964 21.1871L14.0098 21.2112L14.056 21.235L14.1022 21.2582L14.1486 21.2809L14.1952 21.3031L14.2421 21.325L14.2889 21.3463L14.3362 21.3671L14.3834 21.3875L14.4307 21.4074L14.4784 21.4268L14.5261 21.4458L14.5739 21.4643L14.6219 21.4823L14.67 21.4997L14.7183 21.5167L14.7665 21.5333L14.8151 21.5494L14.8635 21.5649L14.9121 21.58L14.9608 21.5947L15.0097 21.6088L15.0585 21.6224L15.1075 21.6356L15.1565 21.6483L15.2056 21.6605L15.2547 21.6722L15.3039 21.6835L15.3531 21.6942L15.4024 21.7044L15.4517 21.7143L15.5011 21.7235L15.5504 21.7324L15.5997 21.7407L15.6492 21.7487L15.6986 21.756L15.748 21.763L15.7973 21.7694L15.8467 21.7753L15.8961 21.7808L15.9455 21.7859L15.9949 21.7903L16.0442 21.7944L16.0935 21.798L16.1427 21.8011L16.1919 21.8038L16.241 21.8059L16.29 21.8077L16.3392 21.8089L16.388 21.8097L16.4369 21.81L16.4857 21.8099L16.5344 21.8093L16.5832 21.8082L16.6317 21.8067L16.6801 21.8047L16.7284 21.8023L16.7768 21.7994L16.8248 21.796L16.8729 21.7923L16.9208 21.788L16.9686 21.7834L17.0163 21.7782L17.0637 21.7727L17.1112 21.7667L17.1583 21.7602L17.2053 21.7533L17.2524 21.746L17.2991 21.7383L17.3457 21.7301L17.3922 21.7215L17.4385 21.7124L17.4845 21.703L17.5303 21.6931L17.5761 21.6828L17.6216 21.6721L17.6669 21.6611L17.7121 21.6495L17.757 21.6376L17.8019 21.6252L17.8463 21.6125L17.8904 21.5994L17.9347 21.5858L17.9785 21.5719L18.0221 21.5576L18.0655 21.5429L18.1086 21.5278L18.1517 21.5123L18.1944 21.4964L18.2367 21.4802L18.2789 21.4636L18.3208 21.4466L18.3626 21.4292L18.4039 21.4115L18.4451 21.3935L18.486 21.3751L18.5265 21.3563L18.5669 21.3371L18.6068 21.3177L18.6467 21.2979L18.6861 21.2776L18.7253 21.2571L18.7641 21.2363L18.8028 21.2151L18.8411 21.1936L18.879 21.1718L18.9166 21.1496L18.954 21.1271L18.9911 21.1044L19.0279 21.0813L19.0643 21.0579L19.1004 21.0342L19.1362 21.0102L19.1715 20.9859L19.2067 20.9613L19.2414 20.9364L19.2759 20.9112L19.31 20.8858L19.3438 20.86L19.3772 20.8341L19.4103 20.8079L19.4429 20.7813L19.4753 20.7545L19.5074 20.7275L19.539 20.7001L19.5704 20.6726L19.6012 20.6448L19.6318 20.6167L19.6621 20.5884L19.692 20.5599L19.7214 20.5312L19.7505 20.5022L19.7792 20.4731L19.8077 20.4435L19.8355 20.414L19.8632 20.3841L19.8904 20.354L19.9172 20.3239L19.9438 20.2933L19.9698 20.2627L19.9955 20.2319L20.0209 20.2009L20.0457 20.1697L20.0703 20.1383L20.0944 20.1068L20.1181 20.075L20.1416 20.0431L20.1645 20.0111L20.187 19.9788L20.2093 19.9465L20.2309 19.914L20.2523 19.8814L20.2733 19.8486L20.2938 19.8156L20.314 19.7826L20.3337 19.7494L20.3531 19.7161L20.372 19.6826L20.3906 19.6491L20.4087 19.6155L20.4264 19.5817L20.4438 19.5479L20.4607 19.5138L20.4772 19.4798L20.4933 19.4456L20.509 19.4115L20.5243 19.3771L20.5391 19.3427L20.5537 19.3081L20.5677 19.2738L20.5814 19.2389L20.5945 19.2046L20.6074 19.1697L20.6199 19.1348L20.6318 19.1001L20.6435 19.0652L20.6547 19.0304L20.6655 18.9952L20.6758 18.9605L20.6859 18.9252L20.6954 18.8905L20.7046 18.8553L20.7133 18.8201L20.7217 18.7851L20.7296 18.7503L20.7372 18.7149L20.7443 18.6799L20.7511 18.6447L20.7574 18.6098L20.7634 18.5747L20.7689 18.5396L20.7741 18.5045L20.7788 18.4695L20.7832 18.4346L20.7871 18.3998L20.7907 18.3647L20.7939 18.3299L20.7966 18.295L20.799 18.2602L20.801 18.2255L20.8026 18.1908L20.8038 18.1563L20.8046 18.1216L20.8051 18.087L20.8052 18.0527L20.8049 18.0183L20.8042 17.9841L20.8031 17.9499L20.8017 17.9156L20.7998 17.8819L20.7976 17.8475L20.7951 17.814L20.7922 17.7803L20.7889 17.7464L20.7852 17.7129L20.7812 17.6797L20.7768 17.646L20.772 17.6131L20.7669 17.5799L20.7615 17.5471L20.7556 17.5141L20.7495 17.4813L20.743 17.4488L20.7362 17.4164L20.7289 17.3839L20.7213 17.3519L20.7135 17.3198L20.7053 17.2879L20.6968 17.2563L20.6877 17.2245L20.6787 17.1933L20.6691 17.1618L20.6592 17.1308L20.649 17.0999L20.6385 17.0691L20.6276 17.0385L20.6164 17.0079L20.6051 16.9779L20.5933 16.9479L20.5811 16.9178L20.5688 16.8882L20.556 16.8584L20.5432 16.8294L20.5298 16.8L20.5163 16.7711L20.5024 16.7425L20.4883 16.7139L20.4739 16.6855L20.4591 16.6574L20.4441 16.6294L20.4289 16.6017L20.4133 16.5742L20.3976 16.5469L20.3815 16.5198L20.3651 16.4929L20.3485 16.4663L20.3317 16.4399L20.3145 16.4135L20.2972 16.3877L20.2796 16.3619L20.2617 16.3364L20.2436 16.3111L20.2253 16.2861L20.2067 16.2612L20.188 16.2367L20.1689 16.2123L20.1496 16.1883L20.1303 16.1644L20.1105 16.1407L20.0906 16.1175L20.0705 16.0943L20.0502 16.0715L20.0296 16.0488L20.009 16.0265L19.988 16.0044L19.9669 15.9826L19.9456 15.9609L19.9241 15.9396L19.9024 15.9186L19.8805 15.8977L19.8585 15.8772L19.8363 15.857L19.814 15.837L19.7912 15.8171L19.7687 15.7977L19.7458 15.7784L19.7228 15.7595L19.6995 15.7408L19.6762 15.7225L19.6527 15.7043L19.6291 15.6865L19.6054 15.6689L19.5815 15.6515L19.5575 15.6346L19.5333 15.6178L19.509 15.6013L19.4846 15.5851L19.4601 15.5691L19.4355 15.5535L19.4108 15.5382L19.3859 15.5231L19.361 15.5083L19.3358 15.4937L19.3107 15.4795L19.2856 15.4655L19.2602 15.4519L19.2347 15.4384L19.2093 15.4253L19.1837 15.4124L19.1581 15.3999L19.1325 15.3876L19.1065 15.3755L19.0808 15.3639L19.0548 15.3525L19.0289 15.3413L19.0029 15.3304L18.9767 15.3198L18.9507 15.3095L18.9245 15.2995L18.8982 15.2898L18.872 15.2803L18.8457 15.2711L18.8195 15.2623L18.7931 15.2536L18.7667 15.2452L18.7405 15.2372L18.714 15.2294L18.6876 15.2219L18.6613 15.2147L18.6347 15.2077L18.6084 15.2011L18.582 15.1947L18.5555 15.1885L18.5291 15.1827L18.5027 15.1771L18.4763 15.1718L18.4499 15.1667L18.4237 15.1619L18.3974 15.1575L18.3709 15.1532L18.3448 15.1493L18.3184 15.1456L18.2924 15.1422L18.2661 15.139L18.24 15.1361L18.2141 15.1335L18.188 15.1311L18.162 15.129L18.1361 15.1271L18.1102 15.1255L18.0844 15.1242L18.0586 15.1231L18.0331 15.1223L18.0074 15.1217L17.9819 15.1214L17.9564 15.1213L17.931 15.1215L17.9057 15.1219L17.8805 15.1226L17.8553 15.1235L17.8304 15.1247L17.8053 15.1261L17.7805 15.1277L17.7558 15.1295L17.7311 15.1317L17.7066 15.134L17.682 15.1366L17.6578 15.1394L17.6335 15.1424L17.6094 15.1457L17.5853 15.1492L17.5615 15.1529L17.5377 15.1568L17.5142 15.161L17.4905 15.1654L17.4672 15.1699L17.4439 15.1747L17.4208 15.1798Z" fill="#3B9EFF"/>
</svg>
