<svg width="40" height="41" viewBox="0 0 40 41" fill="none" xmlns="http://www.w3.org/2000/svg">
<path d="M30.531 39.674H19.1277C18.3736 39.674 17.7483 39.0437 17.7483 38.2836C17.7483 37.5234 18.3736 36.8931 19.1277 36.8931H30.531C32.499 36.8931 34.4301 35.2428 34.7612 33.2776L37.2074 18.5201C37.4281 17.1853 36.6926 15.2755 35.6626 14.4412L22.9165 4.17026C21.4451 2.98371 18.999 2.98369 17.546 4.1517L4.8001 14.4412C3.75174 15.294 3.03444 17.1853 3.25514 18.5201L3.77013 21.6532C3.89888 22.4133 3.38391 23.1364 2.62982 23.2476C1.87574 23.3959 1.17685 22.8583 1.0481 22.0981L0.533113 18.9836C0.146873 16.6847 1.25043 13.7368 3.07128 12.2722L15.8172 1.98247C18.2817 -0.0198316 22.1624 -0.00127327 24.6454 2.00103L37.3913 12.2722C39.1938 13.7368 40.2973 16.6847 39.9295 18.9836L37.4833 33.7411C36.9315 37.0227 33.8232 39.674 30.531 39.674Z" fill="#0090FF"/>
<path d="M7.35738 40.0265C6.60329 40.0265 5.99634 39.4147 5.97795 38.6731C5.92278 36.1702 4.28587 34.5202 1.80291 34.4646C1.04882 34.446 0.441854 33.8157 0.460246 33.037C0.478638 32.2769 1.08559 31.6836 1.83967 31.6836H1.87644C5.8308 31.7763 8.66324 34.6129 8.73681 38.5989C8.7552 39.3591 8.14823 40.008 7.39414 40.0265C7.37575 40.0265 7.37577 40.0265 7.35738 40.0265Z" fill="#0090FF"/>
<path d="M12.8751 40.0264C12.121 40.0264 11.4956 39.4146 11.4956 38.6545C11.4772 37.4309 11.2749 36.2629 10.9071 35.169C9.96906 32.4622 7.9643 30.4597 5.27901 29.4956C4.19386 29.1063 3.03515 28.9026 1.82125 28.9026C1.06716 28.9026 0.441842 28.2722 0.460235 27.4935C0.460235 26.7334 1.08557 26.1216 1.83966 26.1216H1.85805C3.38462 26.1401 4.8376 26.3997 6.19863 26.8817C9.67479 28.1239 12.2681 30.738 13.5004 34.242C13.9786 35.614 14.2361 37.0971 14.2545 38.6174C14.2545 39.3961 13.6476 40.0264 12.8751 40.0264Z" fill="#0090FF"/>
<path d="M1.83924 40.4899C0.809264 40.4899 0 39.6557 0 38.636C0 37.6163 0.827656 36.782 1.83924 36.782C2.85082 36.782 3.67847 37.6163 3.67847 38.636C3.67847 39.6557 2.86921 40.4899 1.83924 40.4899Z" fill="#0090FF"/>
</svg>
