<svg width="44" height="43" viewBox="0 0 44 43" fill="none" xmlns="http://www.w3.org/2000/svg">
<path d="M42 14.6501V28.33C42 30.57 40.6791 32.65 38.5437 33.79L25.4672 40.65C23.3318 41.77 20.6901 41.77 18.5327 40.65L5.45625 33.79C3.32086 32.67 2 30.59 2 28.33V14.6501C2 12.4101 3.32086 10.33 5.45625 9.18997L18.5327 2.32999C20.6681 1.20999 23.3098 1.20999 25.4672 2.32999L38.5437 9.18997C40.6791 10.33 42 12.3901 42 14.6501Z" stroke="#0090FF" stroke-width="3" stroke-linecap="round" stroke-linejoin="round"/>
<path d="M22.011 19.4902C24.844 19.4902 27.1403 17.4037 27.1403 14.8301C27.1403 12.2564 24.844 10.1702 22.011 10.1702C19.1782 10.1702 16.8817 12.2564 16.8817 14.8301C16.8817 17.4037 19.1782 19.4902 22.011 19.4902Z" stroke="#0090FF" stroke-width="3" stroke-linecap="round" stroke-linejoin="round"/>
<path d="M30.8167 30.8103C30.8167 27.2103 26.8761 24.2903 22.0109 24.2903C17.1458 24.2903 13.2052 27.2103 13.2052 30.8103" stroke="#0090FF" stroke-width="3" stroke-linecap="round" stroke-linejoin="round"/>
</svg>
