<svg width="140" height="141" viewBox="0 0 140 141" fill="none" xmlns="http://www.w3.org/2000/svg">
<g filter="url(#filter0_d_11701_3916)">
<path d="M26 60.49C26 38.3986 43.9086 20.49 66 20.49C88.0914 20.49 106 38.3986 106 60.49C106 82.5814 88.0914 100.49 66 100.49C43.9086 100.49 26 82.5814 26 60.49Z" fill="#0090FF" shape-rendering="crispEdges"/>
<path d="M85.0773 56.5673L67.3463 40.2547C66.7698 39.7244 66.0108 39.4374 65.2277 39.4537C64.4446 39.47 63.6981 39.7883 63.1443 40.3422L46.8369 56.6497L46 57.4864V81.5271H61.7143V66.5271H70.2857V81.5271H86V57.4162L85.0773 56.5673ZM65.2891 42.3102C65.3143 42.3102 65.2987 42.3156 65.2879 42.3263C65.2768 42.3156 65.2639 42.3102 65.2891 42.3102ZM83.1429 78.6699H73.1429V66.5271C73.1429 65.7693 72.8418 65.0426 72.306 64.5068C71.7702 63.971 71.0435 63.6699 70.2857 63.6699H61.7143C60.9565 63.6699 60.2298 63.971 59.694 64.5068C59.1582 65.0426 58.8571 65.7693 58.8571 66.5271V78.6699H48.8571L48.8571 58.6699L65.2891 42.3624L65.2913 42.3593L83.1429 58.6699V78.6699Z" fill="#EEEEEE" stroke="#EEEEEE" stroke-width="0.6"/>
</g>
<defs>
<filter id="filter0_d_11701_3916" x="0" y="0.48999" width="140" height="140" filterUnits="userSpaceOnUse" color-interpolation-filters="sRGB">
<feFlood flood-opacity="0" result="BackgroundImageFix"/>
<feColorMatrix in="SourceAlpha" type="matrix" values="0 0 0 0 0 0 0 0 0 0 0 0 0 0 0 0 0 0 127 0" result="hardAlpha"/>
<feOffset dx="4" dy="10"/>
<feGaussianBlur stdDeviation="15"/>
<feComposite in2="hardAlpha" operator="out"/>
<feColorMatrix type="matrix" values="0 0 0 0 0.262745 0 0 0 0 0.380392 0 0 0 0 0.933333 0 0 0 0.4 0"/>
<feBlend mode="normal" in2="BackgroundImageFix" result="effect1_dropShadow_11701_3916"/>
<feBlend mode="normal" in="SourceGraphic" in2="effect1_dropShadow_11701_3916" result="shape"/>
</filter>
</defs>
</svg>
