<svg width="140" height="141" viewBox="0 0 140 141" fill="none" xmlns="http://www.w3.org/2000/svg">
<g filter="url(#filter0_d_11701_3904)">
<path d="M26 60.49C26 38.3986 43.9086 20.49 66 20.49C88.0914 20.49 106 38.3986 106 60.49C106 82.5814 88.0914 100.49 66 100.49C43.9086 100.49 26 82.5814 26 60.49Z" fill="#0090FF" shape-rendering="crispEdges"/>
<path d="M84.6332 72.4948L77.8763 65.7378L72.6789 63.5906C74.4095 61.1296 75.3366 58.1937 75.3333 55.1852C75.3333 47.098 68.7539 40.5186 60.6666 40.5186C52.5794 40.5186 46 47.098 46 55.1852C46 63.2724 52.5794 69.8518 60.6666 69.8518C63.7013 69.8553 66.6615 68.9121 69.1349 67.1537L71.2765 72.3371L78.0333 79.0944C78.4666 79.5277 78.981 79.8715 79.5472 80.1061C80.1134 80.3406 80.7203 80.4613 81.3331 80.4613C81.9459 80.4614 82.5528 80.3407 83.119 80.1062C83.6852 79.8717 84.1997 79.5279 84.633 79.0946C85.0664 78.6613 85.4102 78.1468 85.6447 77.5806C85.8792 77.0144 86 76.4076 86 75.7947C86 75.1819 85.8793 74.575 85.6448 74.0088C85.4103 73.4426 85.0666 72.9282 84.6332 72.4948ZM48.6667 55.1852C48.6667 48.5685 54.05 43.1852 60.6666 43.1852C67.2833 43.1852 72.6666 48.5685 72.6666 55.1852C72.6666 61.8018 67.2833 67.1852 60.6666 67.1852C54.05 67.1852 48.6667 61.8018 48.6667 55.1852ZM82.7475 77.2088C82.3721 77.5833 81.8635 77.7937 81.3333 77.7937C80.803 77.7937 80.2944 77.5833 79.919 77.2088L73.538 70.8278L71.5469 66.0082L76.3666 67.9994L82.7477 74.3804C83.1221 74.7558 83.3324 75.2644 83.3324 75.7946C83.3324 76.3249 83.122 76.8334 82.7475 77.2088Z" fill="#EEEEEE" stroke="#EEEEEE" stroke-width="0.6"/>
</g>
<defs>
<filter id="filter0_d_11701_3904" x="0" y="0.48999" width="140" height="140" filterUnits="userSpaceOnUse" color-interpolation-filters="sRGB">
<feFlood flood-opacity="0" result="BackgroundImageFix"/>
<feColorMatrix in="SourceAlpha" type="matrix" values="0 0 0 0 0 0 0 0 0 0 0 0 0 0 0 0 0 0 127 0" result="hardAlpha"/>
<feOffset dx="4" dy="10"/>
<feGaussianBlur stdDeviation="15"/>
<feComposite in2="hardAlpha" operator="out"/>
<feColorMatrix type="matrix" values="0 0 0 0 0.262745 0 0 0 0 0.380392 0 0 0 0 0.933333 0 0 0 0.4 0"/>
<feBlend mode="normal" in2="BackgroundImageFix" result="effect1_dropShadow_11701_3904"/>
<feBlend mode="normal" in="SourceGraphic" in2="effect1_dropShadow_11701_3904" result="shape"/>
</filter>
</defs>
</svg>
