<svg width="220" height="262" viewBox="0 0 220 262" fill="none" xmlns="http://www.w3.org/2000/svg">
<g filter="url(#filter0_d_11701_3921)">
<path d="M70 60.49C70 38.3986 87.9086 20.49 110 20.49C132.091 20.49 150 38.3986 150 60.49C150 82.5814 132.091 100.49 110 100.49C87.9086 100.49 70 82.5814 70 60.49Z" fill="#0090FF" shape-rendering="crispEdges"/>
<path d="M126 50.49H105.2V62.5519H102.985V58.4519C102.982 56.129 102.058 53.9019 100.416 52.2592C98.773 50.6166 96.5459 49.6927 94.2229 49.69H89.2V43.29H86V77.69H89.2V72.9157L130.8 73.2485V77.69H134V58.49C133.998 56.369 133.154 54.3356 131.654 52.8358C130.154 51.3361 128.121 50.4924 126 50.49ZM89.2 52.89H94.2229C95.6974 52.8917 97.1111 53.4782 98.1538 54.5209C99.1964 55.5635 99.7829 56.9772 99.7846 58.4517V62.5517H89.2V52.89ZM130.8 70.0484L89.2 69.7156V65.7519H130.8V70.0484ZM130.8 62.5519H108.4V53.69H126C127.273 53.6915 128.493 54.1977 129.393 55.0975C130.292 55.9974 130.799 57.2174 130.8 58.49V62.5519Z" fill="#EEEEEE"/>
</g>
<path d="M52.4957 141.49V127.49H57.8657C58.6257 127.49 59.3124 127.68 59.9257 128.06C60.539 128.44 61.0257 128.95 61.3857 129.59C61.7457 130.223 61.9257 130.927 61.9257 131.7C61.9257 132.333 61.809 132.917 61.5757 133.45C61.349 133.977 61.029 134.433 60.6157 134.82C60.209 135.207 59.739 135.5 59.2057 135.7L62.5557 141.49H59.7457L56.5057 135.92H54.9357V141.49H52.4957ZM54.9357 133.48H57.5857C57.9324 133.48 58.249 133.393 58.5357 133.22C58.8224 133.047 59.0524 132.813 59.2257 132.52C59.399 132.227 59.4857 131.9 59.4857 131.54C59.4857 131.173 59.399 130.843 59.2257 130.55C59.0524 130.257 58.8224 130.023 58.5357 129.85C58.249 129.677 57.9324 129.59 57.5857 129.59H54.9357V133.48ZM68.2848 141.75C67.3648 141.75 66.5248 141.513 65.7648 141.04C65.0114 140.567 64.4081 139.93 63.9548 139.13C63.5081 138.33 63.2848 137.447 63.2848 136.48C63.2848 135.753 63.4148 135.073 63.6748 134.44C63.9348 133.8 64.2914 133.24 64.7448 132.76C65.2048 132.273 65.7381 131.893 66.3448 131.62C66.9514 131.347 67.5981 131.21 68.2848 131.21C69.0648 131.21 69.7781 131.377 70.4248 131.71C71.0781 132.037 71.6314 132.487 72.0848 133.06C72.5381 133.633 72.8681 134.287 73.0748 135.02C73.2814 135.753 73.3281 136.52 73.2148 137.32H65.9048C65.9981 137.693 66.1514 138.03 66.3648 138.33C66.5781 138.623 66.8481 138.86 67.1748 139.04C67.5014 139.213 67.8714 139.303 68.2848 139.31C68.7114 139.317 69.0981 139.217 69.4448 139.01C69.7981 138.797 70.0914 138.51 70.3248 138.15L72.8148 138.73C72.4081 139.617 71.8014 140.343 70.9948 140.91C70.1881 141.47 69.2848 141.75 68.2848 141.75ZM65.8248 135.49H70.7448C70.6714 135.09 70.5148 134.73 70.2748 134.41C70.0414 134.083 69.7514 133.823 69.4048 133.63C69.0581 133.437 68.6848 133.34 68.2848 133.34C67.8848 133.34 67.5148 133.437 67.1748 133.63C66.8348 133.817 66.5448 134.073 66.3048 134.4C66.0714 134.72 65.9114 135.083 65.8248 135.49ZM84.1018 135.17V141.49H81.6618V135.81C81.6618 135.417 81.5651 135.06 81.3718 134.74C81.1785 134.413 80.9185 134.157 80.5918 133.97C80.2718 133.777 79.9151 133.68 79.5218 133.68C79.1285 133.68 78.7685 133.777 78.4418 133.97C78.1218 134.157 77.8651 134.413 77.6718 134.74C77.4851 135.06 77.3918 135.417 77.3918 135.81V141.49H74.9518L74.9418 131.49H77.3818L77.3918 132.38C77.7318 132.02 78.1385 131.737 78.6118 131.53C79.0851 131.317 79.5951 131.21 80.1418 131.21C80.8685 131.21 81.5318 131.39 82.1318 131.75C82.7318 132.103 83.2085 132.58 83.5618 133.18C83.9218 133.773 84.1018 134.437 84.1018 135.17ZM91.5541 133.93H89.6141V141.49H87.1741V133.93H85.6941V131.49H87.1741V128.35H89.6141V131.49H91.5541V133.93ZM105.907 131.49H108.347V141.49H105.907L105.797 140.25C105.523 140.697 105.16 141.06 104.707 141.34C104.26 141.613 103.73 141.75 103.117 141.75C102.377 141.75 101.683 141.61 101.037 141.33C100.39 141.05 99.8201 140.663 99.3268 140.17C98.8401 139.677 98.4568 139.107 98.1768 138.46C97.9035 137.813 97.7668 137.12 97.7668 136.38C97.7668 135.667 97.8968 134.997 98.1568 134.37C98.4235 133.743 98.7935 133.193 99.2668 132.72C99.7401 132.247 100.287 131.877 100.907 131.61C101.527 131.343 102.193 131.21 102.907 131.21C103.567 131.21 104.157 131.357 104.677 131.65C105.203 131.943 105.65 132.317 106.017 132.77L105.907 131.49ZM103.057 139.4C103.577 139.4 104.037 139.27 104.437 139.01C104.837 138.75 105.15 138.4 105.377 137.96C105.603 137.513 105.717 137.023 105.717 136.49C105.717 135.95 105.603 135.46 105.377 135.02C105.15 134.573 104.833 134.22 104.427 133.96C104.027 133.7 103.57 133.57 103.057 133.57C102.543 133.57 102.073 133.703 101.647 133.97C101.227 134.23 100.89 134.58 100.637 135.02C100.39 135.46 100.267 135.95 100.267 136.49C100.267 137.03 100.393 137.52 100.647 137.96C100.9 138.4 101.237 138.75 101.657 139.01C102.083 139.27 102.55 139.4 103.057 139.4ZM123.584 127.49H126.024V141.49H123.584V135.21H117.784V141.49H115.344V127.49H117.784V132.77H123.584V127.49ZM132.774 141.75C131.854 141.75 131.014 141.513 130.254 141.04C129.5 140.567 128.897 139.933 128.444 139.14C127.997 138.34 127.774 137.457 127.774 136.49C127.774 135.757 127.904 135.073 128.164 134.44C128.424 133.8 128.78 133.24 129.234 132.76C129.694 132.273 130.227 131.893 130.834 131.62C131.44 131.347 132.087 131.21 132.774 131.21C133.694 131.21 134.53 131.447 135.284 131.92C136.044 132.393 136.647 133.03 137.094 133.83C137.547 134.63 137.774 135.517 137.774 136.49C137.774 137.217 137.644 137.897 137.384 138.53C137.124 139.163 136.764 139.723 136.304 140.21C135.85 140.69 135.32 141.067 134.714 141.34C134.114 141.613 133.467 141.75 132.774 141.75ZM132.774 139.31C133.26 139.31 133.697 139.18 134.084 138.92C134.47 138.66 134.774 138.317 134.994 137.89C135.22 137.463 135.334 136.997 135.334 136.49C135.334 135.97 135.217 135.497 134.984 135.07C134.757 134.637 134.447 134.293 134.054 134.04C133.667 133.78 133.24 133.65 132.774 133.65C132.294 133.65 131.86 133.78 131.474 134.04C131.087 134.3 130.78 134.647 130.554 135.08C130.327 135.513 130.214 135.983 130.214 136.49C130.214 137.017 130.33 137.493 130.564 137.92C130.797 138.347 131.107 138.687 131.494 138.94C131.887 139.187 132.314 139.31 132.774 139.31ZM138.816 137.79V131.49H141.256V137.15C141.256 137.543 141.353 137.903 141.546 138.23C141.739 138.55 141.996 138.807 142.316 139C142.643 139.187 142.999 139.28 143.386 139.28C143.786 139.28 144.146 139.187 144.466 139C144.786 138.807 145.043 138.55 145.236 138.23C145.429 137.903 145.526 137.543 145.526 137.15V131.49H147.966L147.976 141.49H145.536L145.526 140.58C145.179 140.94 144.769 141.227 144.296 141.44C143.823 141.647 143.316 141.75 142.776 141.75C142.049 141.75 141.386 141.573 140.786 141.22C140.186 140.86 139.706 140.383 139.346 139.79C138.993 139.19 138.816 138.523 138.816 137.79ZM153.028 141.67C152.508 141.637 152.004 141.533 151.518 141.36C151.038 141.18 150.611 140.937 150.238 140.63C149.864 140.323 149.578 139.957 149.378 139.53L151.438 138.65C151.518 138.783 151.648 138.927 151.828 139.08C152.008 139.227 152.221 139.35 152.468 139.45C152.721 139.55 152.998 139.6 153.298 139.6C153.551 139.6 153.791 139.567 154.018 139.5C154.251 139.427 154.438 139.317 154.578 139.17C154.724 139.023 154.798 138.833 154.798 138.6C154.798 138.353 154.711 138.163 154.538 138.03C154.371 137.89 154.158 137.787 153.898 137.72C153.644 137.647 153.398 137.58 153.158 137.52C152.524 137.393 151.934 137.197 151.388 136.93C150.848 136.663 150.411 136.32 150.078 135.9C149.751 135.473 149.588 134.96 149.588 134.36C149.588 133.7 149.761 133.13 150.108 132.65C150.461 132.17 150.918 131.8 151.478 131.54C152.044 131.28 152.654 131.15 153.308 131.15C154.101 131.15 154.828 131.317 155.488 131.65C156.154 131.977 156.681 132.44 157.068 133.04L155.138 134.18C155.044 134.02 154.914 133.873 154.748 133.74C154.581 133.6 154.391 133.487 154.178 133.4C153.964 133.307 153.741 133.253 153.508 133.24C153.208 133.227 152.934 133.253 152.688 133.32C152.441 133.387 152.241 133.5 152.088 133.66C151.941 133.82 151.868 134.033 151.868 134.3C151.868 134.553 151.968 134.743 152.168 134.87C152.368 134.99 152.608 135.083 152.888 135.15C153.174 135.217 153.448 135.29 153.708 135.37C154.294 135.563 154.844 135.8 155.358 136.08C155.878 136.36 156.294 136.703 156.608 137.11C156.921 137.517 157.071 138.003 157.058 138.57C157.058 139.217 156.864 139.783 156.478 140.27C156.091 140.75 155.591 141.117 154.978 141.37C154.371 141.623 153.721 141.723 153.028 141.67ZM163.113 141.75C162.193 141.75 161.353 141.513 160.593 141.04C159.84 140.567 159.236 139.93 158.783 139.13C158.336 138.33 158.113 137.447 158.113 136.48C158.113 135.753 158.243 135.073 158.503 134.44C158.763 133.8 159.12 133.24 159.573 132.76C160.033 132.273 160.566 131.893 161.173 131.62C161.78 131.347 162.426 131.21 163.113 131.21C163.893 131.21 164.606 131.377 165.253 131.71C165.906 132.037 166.46 132.487 166.913 133.06C167.366 133.633 167.696 134.287 167.903 135.02C168.11 135.753 168.156 136.52 168.043 137.32H160.733C160.826 137.693 160.98 138.03 161.193 138.33C161.406 138.623 161.676 138.86 162.003 139.04C162.33 139.213 162.7 139.303 163.113 139.31C163.54 139.317 163.926 139.217 164.273 139.01C164.626 138.797 164.92 138.51 165.153 138.15L167.643 138.73C167.236 139.617 166.63 140.343 165.823 140.91C165.016 141.47 164.113 141.75 163.113 141.75ZM160.653 135.49H165.573C165.5 135.09 165.343 134.73 165.103 134.41C164.87 134.083 164.58 133.823 164.233 133.63C163.886 133.437 163.513 133.34 163.113 133.34C162.713 133.34 162.343 133.437 162.003 133.63C161.663 133.817 161.373 134.073 161.133 134.4C160.9 134.72 160.74 135.083 160.653 135.49Z" fill="#EEEEEE"/>
<path d="M17.4149 168.338C18.6309 168.338 19.6816 168.567 20.5669 169.026C21.4629 169.474 22.1456 170.119 22.6149 170.962C23.0949 171.805 23.3349 172.797 23.3349 173.938C23.3349 175.079 23.0949 176.071 22.6149 176.914C22.1456 177.746 21.4629 178.386 20.5669 178.834C19.6816 179.271 18.6309 179.49 17.4149 179.49H13.9429V168.338H17.4149ZM17.4149 178.29C18.8549 178.29 19.9536 177.911 20.7109 177.154C21.4683 176.386 21.8469 175.314 21.8469 173.938C21.8469 172.551 21.4629 171.469 20.6949 170.69C19.9376 169.911 18.8443 169.522 17.4149 169.522H15.3989V178.29H17.4149ZM29.0794 179.634C28.2581 179.634 27.5114 179.447 26.8394 179.074C26.1781 178.701 25.6554 178.173 25.2714 177.49C24.8981 176.797 24.7114 175.997 24.7114 175.09C24.7114 174.194 24.9034 173.405 25.2874 172.722C25.6821 172.029 26.2154 171.501 26.8874 171.138C27.5594 170.765 28.3114 170.578 29.1434 170.578C29.9754 170.578 30.7274 170.765 31.3994 171.138C32.0714 171.501 32.5994 172.023 32.9834 172.706C33.3781 173.389 33.5754 174.183 33.5754 175.09C33.5754 175.997 33.3728 176.797 32.9674 177.49C32.5728 178.173 32.0341 178.701 31.3514 179.074C30.6688 179.447 29.9114 179.634 29.0794 179.634ZM29.0794 178.354C29.6021 178.354 30.0928 178.231 30.5514 177.986C31.0101 177.741 31.3781 177.373 31.6554 176.882C31.9434 176.391 32.0874 175.794 32.0874 175.09C32.0874 174.386 31.9488 173.789 31.6714 173.298C31.3941 172.807 31.0314 172.445 30.5834 172.21C30.1354 171.965 29.6501 171.842 29.1274 171.842C28.5941 171.842 28.1034 171.965 27.6554 172.21C27.2181 172.445 26.8661 172.807 26.5994 173.298C26.3328 173.789 26.1994 174.386 26.1994 175.09C26.1994 175.805 26.3274 176.407 26.5834 176.898C26.8501 177.389 27.2021 177.757 27.6394 178.002C28.0768 178.237 28.5568 178.354 29.0794 178.354ZM39.7618 170.562C40.8285 170.562 41.6925 170.887 42.3538 171.538C43.0151 172.178 43.3458 173.106 43.3458 174.322V179.49H41.9058V174.53C41.9058 173.655 41.6871 172.989 41.2498 172.53C40.8125 172.061 40.2151 171.826 39.4578 171.826C38.6898 171.826 38.0765 172.066 37.6178 172.546C37.1698 173.026 36.9458 173.725 36.9458 174.642V179.49H35.4898V170.722H36.9458V171.97C37.2338 171.522 37.6231 171.175 38.1138 170.93C38.6151 170.685 39.1645 170.562 39.7618 170.562ZM53.7242 174.77C53.7242 175.047 53.7082 175.341 53.6762 175.65H46.6682C46.7215 176.514 47.0149 177.191 47.5482 177.682C48.0922 178.162 48.7482 178.402 49.5162 178.402C50.1455 178.402 50.6682 178.258 51.0842 177.97C51.5109 177.671 51.8095 177.277 51.9802 176.786H53.5482C53.3135 177.629 52.8442 178.317 52.1402 178.85C51.4362 179.373 50.5615 179.634 49.5162 179.634C48.6842 179.634 47.9375 179.447 47.2762 179.074C46.6255 178.701 46.1135 178.173 45.7402 177.49C45.3669 176.797 45.1802 175.997 45.1802 175.09C45.1802 174.183 45.3615 173.389 45.7242 172.706C46.0869 172.023 46.5935 171.501 47.2442 171.138C47.9055 170.765 48.6629 170.578 49.5162 170.578C50.3482 170.578 51.0842 170.759 51.7242 171.122C52.3642 171.485 52.8549 171.986 53.1962 172.626C53.5482 173.255 53.7242 173.97 53.7242 174.77ZM52.2202 174.466C52.2202 173.911 52.0975 173.437 51.8522 173.042C51.6069 172.637 51.2709 172.333 50.8442 172.13C50.4282 171.917 49.9642 171.81 49.4522 171.81C48.7162 171.81 48.0869 172.045 47.5642 172.514C47.0522 172.983 46.7589 173.634 46.6842 174.466H52.2202ZM55.1021 175.09C55.1021 174.183 55.2834 173.394 55.6461 172.722C56.0087 172.039 56.5101 171.511 57.1501 171.138C57.8007 170.765 58.5421 170.578 59.3741 170.578C60.4514 170.578 61.3367 170.839 62.0301 171.362C62.7341 171.885 63.1981 172.61 63.4221 173.538H61.8541C61.7047 173.005 61.4114 172.583 60.9741 172.274C60.5474 171.965 60.0141 171.81 59.3741 171.81C58.5421 171.81 57.8701 172.098 57.3581 172.674C56.8461 173.239 56.5901 174.045 56.5901 175.09C56.5901 176.146 56.8461 176.962 57.3581 177.538C57.8701 178.114 58.5421 178.402 59.3741 178.402C60.0141 178.402 60.5474 178.253 60.9741 177.954C61.4007 177.655 61.6941 177.229 61.8541 176.674H63.4221C63.1874 177.57 62.7181 178.29 62.0141 178.834C61.3101 179.367 60.4301 179.634 59.3741 179.634C58.5421 179.634 57.8007 179.447 57.1501 179.074C56.5101 178.701 56.0087 178.173 55.6461 177.49C55.2834 176.807 55.1021 176.007 55.1021 175.09ZM71.0864 172.338C71.3744 171.837 71.8011 171.421 72.3664 171.09C72.9424 170.749 73.6091 170.578 74.3664 170.578C75.1451 170.578 75.8491 170.765 76.4784 171.138C77.1184 171.511 77.6198 172.039 77.9824 172.722C78.3451 173.394 78.5264 174.178 78.5264 175.074C78.5264 175.959 78.3451 176.749 77.9824 177.442C77.6198 178.135 77.1184 178.674 76.4784 179.058C75.8491 179.442 75.1451 179.634 74.3664 179.634C73.6198 179.634 72.9584 179.469 72.3824 179.138C71.8171 178.797 71.3851 178.375 71.0864 177.874V183.65H69.6304V170.722H71.0864V172.338ZM77.0384 175.074C77.0384 174.413 76.9051 173.837 76.6384 173.346C76.3718 172.855 76.0091 172.482 75.5504 172.226C75.1024 171.97 74.6064 171.842 74.0624 171.842C73.5291 171.842 73.0331 171.975 72.5744 172.242C72.1264 172.498 71.7638 172.877 71.4864 173.378C71.2198 173.869 71.0864 174.439 71.0864 175.09C71.0864 175.751 71.2198 176.333 71.4864 176.834C71.7638 177.325 72.1264 177.703 72.5744 177.97C73.0331 178.226 73.5291 178.354 74.0624 178.354C74.6064 178.354 75.1024 178.226 75.5504 177.97C76.0091 177.703 76.3718 177.325 76.6384 176.834C76.9051 176.333 77.0384 175.746 77.0384 175.074ZM84.2669 179.634C83.4456 179.634 82.6989 179.447 82.0269 179.074C81.3656 178.701 80.8429 178.173 80.4589 177.49C80.0856 176.797 79.8989 175.997 79.8989 175.09C79.8989 174.194 80.0909 173.405 80.4749 172.722C80.8696 172.029 81.4029 171.501 82.0749 171.138C82.7469 170.765 83.4989 170.578 84.3309 170.578C85.1629 170.578 85.9149 170.765 86.5869 171.138C87.2589 171.501 87.7869 172.023 88.1709 172.706C88.5656 173.389 88.7629 174.183 88.7629 175.09C88.7629 175.997 88.5603 176.797 88.1549 177.49C87.7603 178.173 87.2216 178.701 86.5389 179.074C85.8563 179.447 85.0989 179.634 84.2669 179.634ZM84.2669 178.354C84.7896 178.354 85.2803 178.231 85.7389 177.986C86.1976 177.741 86.5656 177.373 86.8429 176.882C87.1309 176.391 87.2749 175.794 87.2749 175.09C87.2749 174.386 87.1363 173.789 86.8589 173.298C86.5816 172.807 86.2189 172.445 85.7709 172.21C85.3229 171.965 84.8376 171.842 84.3149 171.842C83.7816 171.842 83.2909 171.965 82.8429 172.21C82.4056 172.445 82.0536 172.807 81.7869 173.298C81.5203 173.789 81.3869 174.386 81.3869 175.09C81.3869 175.805 81.5149 176.407 81.7709 176.898C82.0376 177.389 82.3896 177.757 82.8269 178.002C83.2643 178.237 83.7443 178.354 84.2669 178.354ZM92.1333 172.146C92.3893 171.645 92.752 171.255 93.2213 170.978C93.7013 170.701 94.2826 170.562 94.9653 170.562V172.066H94.5813C92.9493 172.066 92.1333 172.951 92.1333 174.722V179.49H90.6773V170.722H92.1333V172.146ZM98.4221 171.922V177.09C98.4221 177.517 98.5127 177.821 98.6941 178.002C98.8754 178.173 99.1901 178.258 99.6381 178.258H100.71V179.49H99.3981C98.5874 179.49 97.9794 179.303 97.5741 178.93C97.1687 178.557 96.9661 177.943 96.9661 177.09V171.922H95.8301V170.722H96.9661V168.514H98.4221V170.722H100.71V171.922H98.4221ZM104.25 171.922V177.09C104.25 177.517 104.341 177.821 104.522 178.002C104.704 178.173 105.018 178.258 105.466 178.258H106.538V179.49H105.226C104.416 179.49 103.808 179.303 103.402 178.93C102.997 178.557 102.794 177.943 102.794 177.09V171.922H101.658V170.722H102.794V168.514H104.25V170.722H106.538V171.922H104.25ZM109.054 169.298C108.777 169.298 108.542 169.202 108.35 169.01C108.158 168.818 108.062 168.583 108.062 168.306C108.062 168.029 108.158 167.794 108.35 167.602C108.542 167.41 108.777 167.314 109.054 167.314C109.321 167.314 109.545 167.41 109.726 167.602C109.918 167.794 110.014 168.029 110.014 168.306C110.014 168.583 109.918 168.818 109.726 169.01C109.545 169.202 109.321 169.298 109.054 169.298ZM109.758 170.722V179.49H108.302V170.722H109.758ZM114.016 171.922V177.09C114.016 177.517 114.106 177.821 114.288 178.002C114.469 178.173 114.784 178.258 115.232 178.258H116.304V179.49H114.992C114.181 179.49 113.573 179.303 113.168 178.93C112.762 178.557 112.56 177.943 112.56 177.09V171.922H111.424V170.722H112.56V168.514H114.016V170.722H116.304V171.922H114.016ZM121.892 179.634C121.071 179.634 120.324 179.447 119.652 179.074C118.991 178.701 118.468 178.173 118.084 177.49C117.711 176.797 117.524 175.997 117.524 175.09C117.524 174.194 117.716 173.405 118.1 172.722C118.495 172.029 119.028 171.501 119.7 171.138C120.372 170.765 121.124 170.578 121.956 170.578C122.788 170.578 123.54 170.765 124.212 171.138C124.884 171.501 125.412 172.023 125.796 172.706C126.191 173.389 126.388 174.183 126.388 175.09C126.388 175.997 126.185 176.797 125.78 177.49C125.385 178.173 124.847 178.701 124.164 179.074C123.481 179.447 122.724 179.634 121.892 179.634ZM121.892 178.354C122.415 178.354 122.905 178.231 123.364 177.986C123.823 177.741 124.191 177.373 124.468 176.882C124.756 176.391 124.9 175.794 124.9 175.09C124.9 174.386 124.761 173.789 124.484 173.298C124.207 172.807 123.844 172.445 123.396 172.21C122.948 171.965 122.463 171.842 121.94 171.842C121.407 171.842 120.916 171.965 120.468 172.21C120.031 172.445 119.679 172.807 119.412 173.298C119.145 173.789 119.012 174.386 119.012 175.09C119.012 175.805 119.14 176.407 119.396 176.898C119.663 177.389 120.015 177.757 120.452 178.002C120.889 178.237 121.369 178.354 121.892 178.354ZM129.758 172.146C130.014 171.645 130.377 171.255 130.846 170.978C131.326 170.701 131.908 170.562 132.59 170.562V172.066H132.206C130.574 172.066 129.758 172.951 129.758 174.722V179.49H128.302V170.722H129.758V172.146ZM146.537 174.77C146.537 175.047 146.521 175.341 146.489 175.65H139.481C139.534 176.514 139.827 177.191 140.361 177.682C140.905 178.162 141.561 178.402 142.329 178.402C142.958 178.402 143.481 178.258 143.897 177.97C144.323 177.671 144.622 177.277 144.793 176.786H146.361C146.126 177.629 145.657 178.317 144.953 178.85C144.249 179.373 143.374 179.634 142.329 179.634C141.497 179.634 140.75 179.447 140.089 179.074C139.438 178.701 138.926 178.173 138.553 177.49C138.179 176.797 137.993 175.997 137.993 175.09C137.993 174.183 138.174 173.389 138.537 172.706C138.899 172.023 139.406 171.501 140.057 171.138C140.718 170.765 141.475 170.578 142.329 170.578C143.161 170.578 143.897 170.759 144.537 171.122C145.177 171.485 145.667 171.986 146.009 172.626C146.361 173.255 146.537 173.97 146.537 174.77ZM145.033 174.466C145.033 173.911 144.91 173.437 144.665 173.042C144.419 172.637 144.083 172.333 143.657 172.13C143.241 171.917 142.777 171.81 142.265 171.81C141.529 171.81 140.899 172.045 140.377 172.514C139.865 172.983 139.571 173.634 139.497 174.466H145.033ZM156.235 170.722V179.49H154.779V178.194C154.501 178.642 154.112 178.994 153.611 179.25C153.12 179.495 152.576 179.618 151.979 179.618C151.296 179.618 150.683 179.479 150.139 179.202C149.595 178.914 149.163 178.487 148.843 177.922C148.533 177.357 148.379 176.669 148.379 175.858V170.722H149.819V175.666C149.819 176.53 150.037 177.197 150.475 177.666C150.912 178.125 151.509 178.354 152.267 178.354C153.045 178.354 153.659 178.114 154.107 177.634C154.555 177.154 154.779 176.455 154.779 175.538V170.722H156.235ZM159.445 169.298C159.168 169.298 158.933 169.202 158.741 169.01C158.549 168.818 158.453 168.583 158.453 168.306C158.453 168.029 158.549 167.794 158.741 167.602C158.933 167.41 159.168 167.314 159.445 167.314C159.712 167.314 159.936 167.41 160.117 167.602C160.309 167.794 160.405 168.029 160.405 168.306C160.405 168.583 160.309 168.818 160.117 169.01C159.936 169.202 159.712 169.298 159.445 169.298ZM160.149 170.722V179.49H158.693V170.722H160.149ZM165.734 179.634C165.062 179.634 164.46 179.522 163.926 179.298C163.393 179.063 162.972 178.743 162.662 178.338C162.353 177.922 162.182 177.447 162.15 176.914H163.654C163.697 177.351 163.9 177.709 164.262 177.986C164.636 178.263 165.121 178.402 165.718 178.402C166.273 178.402 166.71 178.279 167.03 178.034C167.35 177.789 167.51 177.479 167.51 177.106C167.51 176.722 167.34 176.439 166.998 176.258C166.657 176.066 166.129 175.879 165.414 175.698C164.764 175.527 164.23 175.357 163.814 175.186C163.409 175.005 163.057 174.743 162.758 174.402C162.47 174.05 162.326 173.591 162.326 173.026C162.326 172.578 162.46 172.167 162.726 171.794C162.993 171.421 163.372 171.127 163.862 170.914C164.353 170.69 164.913 170.578 165.542 170.578C166.513 170.578 167.297 170.823 167.894 171.314C168.492 171.805 168.812 172.477 168.854 173.33H167.398C167.366 172.871 167.18 172.503 166.838 172.226C166.508 171.949 166.06 171.81 165.494 171.81C164.972 171.81 164.556 171.922 164.246 172.146C163.937 172.37 163.782 172.663 163.782 173.026C163.782 173.314 163.873 173.554 164.054 173.746C164.246 173.927 164.481 174.077 164.758 174.194C165.046 174.301 165.441 174.423 165.942 174.562C166.572 174.733 167.084 174.903 167.478 175.074C167.873 175.234 168.209 175.479 168.486 175.81C168.774 176.141 168.924 176.573 168.934 177.106C168.934 177.586 168.801 178.018 168.534 178.402C168.268 178.786 167.889 179.09 167.398 179.314C166.918 179.527 166.364 179.634 165.734 179.634ZM181.534 170.562C182.216 170.562 182.824 170.706 183.358 170.994C183.891 171.271 184.312 171.693 184.622 172.258C184.931 172.823 185.086 173.511 185.086 174.322V179.49H183.646V174.53C183.646 173.655 183.427 172.989 182.99 172.53C182.563 172.061 181.982 171.826 181.246 171.826C180.488 171.826 179.886 172.071 179.438 172.562C178.99 173.042 178.766 173.741 178.766 174.658V179.49H177.326V174.53C177.326 173.655 177.107 172.989 176.67 172.53C176.243 172.061 175.662 171.826 174.926 171.826C174.168 171.826 173.566 172.071 173.118 172.562C172.67 173.042 172.446 173.741 172.446 174.658V179.49H170.99V170.722H172.446V171.986C172.734 171.527 173.118 171.175 173.598 170.93C174.088 170.685 174.627 170.562 175.214 170.562C175.95 170.562 176.6 170.727 177.166 171.058C177.731 171.389 178.152 171.874 178.43 172.514C178.675 171.895 179.08 171.415 179.646 171.074C180.211 170.733 180.84 170.562 181.534 170.562ZM191.298 179.634C190.477 179.634 189.73 179.447 189.058 179.074C188.397 178.701 187.874 178.173 187.49 177.49C187.117 176.797 186.93 175.997 186.93 175.09C186.93 174.194 187.122 173.405 187.506 172.722C187.901 172.029 188.434 171.501 189.106 171.138C189.778 170.765 190.53 170.578 191.362 170.578C192.194 170.578 192.946 170.765 193.618 171.138C194.29 171.501 194.818 172.023 195.202 172.706C195.597 173.389 195.794 174.183 195.794 175.09C195.794 175.997 195.592 176.797 195.186 177.49C194.792 178.173 194.253 178.701 193.57 179.074C192.888 179.447 192.13 179.634 191.298 179.634ZM191.298 178.354C191.821 178.354 192.312 178.231 192.77 177.986C193.229 177.741 193.597 177.373 193.874 176.882C194.162 176.391 194.306 175.794 194.306 175.09C194.306 174.386 194.168 173.789 193.89 173.298C193.613 172.807 193.25 172.445 192.802 172.21C192.354 171.965 191.869 171.842 191.346 171.842C190.813 171.842 190.322 171.965 189.874 172.21C189.437 172.445 189.085 172.807 188.818 173.298C188.552 173.789 188.418 174.386 188.418 175.09C188.418 175.805 188.546 176.407 188.802 176.898C189.069 177.389 189.421 177.757 189.858 178.002C190.296 178.237 190.776 178.354 191.298 178.354ZM197.165 175.074C197.165 174.178 197.346 173.394 197.709 172.722C198.071 172.039 198.567 171.511 199.197 171.138C199.837 170.765 200.551 170.578 201.341 170.578C202.023 170.578 202.658 170.738 203.245 171.058C203.831 171.367 204.279 171.778 204.589 172.29V167.65H206.061V179.49H204.589V177.842C204.301 178.365 203.874 178.797 203.309 179.138C202.743 179.469 202.082 179.634 201.325 179.634C200.546 179.634 199.837 179.442 199.197 179.058C198.567 178.674 198.071 178.135 197.709 177.442C197.346 176.749 197.165 175.959 197.165 175.074ZM204.589 175.09C204.589 174.429 204.455 173.853 204.189 173.362C203.922 172.871 203.559 172.498 203.101 172.242C202.653 171.975 202.157 171.842 201.613 171.842C201.069 171.842 200.573 171.97 200.125 172.226C199.677 172.482 199.319 172.855 199.053 173.346C198.786 173.837 198.653 174.413 198.653 175.074C198.653 175.746 198.786 176.333 199.053 176.834C199.319 177.325 199.677 177.703 200.125 177.97C200.573 178.226 201.069 178.354 201.613 178.354C202.157 178.354 202.653 178.226 203.101 177.97C203.559 177.703 203.922 177.325 204.189 176.834C204.455 176.333 204.589 175.751 204.589 175.09ZM3.74269 201.074C3.74269 200.178 3.92402 199.394 4.28669 198.722C4.64935 198.039 5.14535 197.511 5.77469 197.138C6.41469 196.765 7.12935 196.578 7.91869 196.578C8.60135 196.578 9.23602 196.738 9.82269 197.058C10.4094 197.367 10.8574 197.778 11.1667 198.29V193.65H12.6387V205.49H11.1667V203.842C10.8787 204.365 10.452 204.797 9.88669 205.138C9.32135 205.469 8.66002 205.634 7.90269 205.634C7.12402 205.634 6.41469 205.442 5.77469 205.058C5.14535 204.674 4.64935 204.135 4.28669 203.442C3.92402 202.749 3.74269 201.959 3.74269 201.074ZM11.1667 201.09C11.1667 200.429 11.0334 199.853 10.7667 199.362C10.5 198.871 10.1374 198.498 9.67869 198.242C9.23069 197.975 8.73469 197.842 8.19069 197.842C7.64669 197.842 7.15069 197.97 6.70269 198.226C6.25469 198.482 5.89735 198.855 5.63069 199.346C5.36402 199.837 5.23069 200.413 5.23069 201.074C5.23069 201.746 5.36402 202.333 5.63069 202.834C5.89735 203.325 6.25469 203.703 6.70269 203.97C7.15069 204.226 7.64669 204.354 8.19069 204.354C8.73469 204.354 9.23069 204.226 9.67869 203.97C10.1374 203.703 10.5 203.325 10.7667 202.834C11.0334 202.333 11.1667 201.751 11.1667 201.09ZM15.8512 195.298C15.5739 195.298 15.3392 195.202 15.1472 195.01C14.9552 194.818 14.8592 194.583 14.8592 194.306C14.8592 194.029 14.9552 193.794 15.1472 193.602C15.3392 193.41 15.5739 193.314 15.8512 193.314C16.1179 193.314 16.3419 193.41 16.5232 193.602C16.7152 193.794 16.8112 194.029 16.8112 194.306C16.8112 194.583 16.7152 194.818 16.5232 195.01C16.3419 195.202 16.1179 195.298 15.8512 195.298ZM16.5552 196.722V205.49H15.0992V196.722H16.5552ZM22.6527 196.578C23.41 196.578 24.0714 196.743 24.6367 197.074C25.2127 197.405 25.6394 197.821 25.9167 198.322V196.722H27.3887V205.682C27.3887 206.482 27.218 207.191 26.8767 207.81C26.5354 208.439 26.0447 208.93 25.4047 209.282C24.7754 209.634 24.0394 209.81 23.1967 209.81C22.0447 209.81 21.0847 209.538 20.3167 208.994C19.5487 208.45 19.0954 207.709 18.9567 206.77H20.3967C20.5567 207.303 20.8874 207.73 21.3887 208.05C21.89 208.381 22.4927 208.546 23.1967 208.546C23.9967 208.546 24.6474 208.295 25.1487 207.794C25.6607 207.293 25.9167 206.589 25.9167 205.682V203.842C25.6287 204.354 25.202 204.781 24.6367 205.122C24.0714 205.463 23.41 205.634 22.6527 205.634C21.874 205.634 21.1647 205.442 20.5247 205.058C19.8954 204.674 19.3994 204.135 19.0367 203.442C18.674 202.749 18.4927 201.959 18.4927 201.074C18.4927 200.178 18.674 199.394 19.0367 198.722C19.3994 198.039 19.8954 197.511 20.5247 197.138C21.1647 196.765 21.874 196.578 22.6527 196.578ZM25.9167 201.09C25.9167 200.429 25.7834 199.853 25.5167 199.362C25.25 198.871 24.8874 198.498 24.4287 198.242C23.9807 197.975 23.4847 197.842 22.9407 197.842C22.3967 197.842 21.9007 197.97 21.4527 198.226C21.0047 198.482 20.6474 198.855 20.3807 199.346C20.114 199.837 19.9807 200.413 19.9807 201.074C19.9807 201.746 20.114 202.333 20.3807 202.834C20.6474 203.325 21.0047 203.703 21.4527 203.97C21.9007 204.226 22.3967 204.354 22.9407 204.354C23.4847 204.354 23.9807 204.226 24.4287 203.97C24.8874 203.703 25.25 203.325 25.5167 202.834C25.7834 202.333 25.9167 201.751 25.9167 201.09ZM34.1212 196.562C35.1879 196.562 36.0519 196.887 36.7132 197.538C37.3745 198.178 37.7052 199.106 37.7052 200.322V205.49H36.2652V200.53C36.2652 199.655 36.0465 198.989 35.6092 198.53C35.1719 198.061 34.5745 197.826 33.8172 197.826C33.0492 197.826 32.4359 198.066 31.9772 198.546C31.5292 199.026 31.3052 199.725 31.3052 200.642V205.49H29.8492V196.722H31.3052V197.97C31.5932 197.522 31.9825 197.175 32.4732 196.93C32.9745 196.685 33.5239 196.562 34.1212 196.562ZM40.8356 195.298C40.5582 195.298 40.3236 195.202 40.1316 195.01C39.9396 194.818 39.8436 194.583 39.8436 194.306C39.8436 194.029 39.9396 193.794 40.1316 193.602C40.3236 193.41 40.5582 193.314 40.8356 193.314C41.1022 193.314 41.3262 193.41 41.5076 193.602C41.6996 193.794 41.7956 194.029 41.7956 194.306C41.7956 194.583 41.6996 194.818 41.5076 195.01C41.3262 195.202 41.1022 195.298 40.8356 195.298ZM41.5396 196.722V205.49H40.0836V196.722H41.5396ZM47.1251 205.634C46.4531 205.634 45.8504 205.522 45.3171 205.298C44.7837 205.063 44.3624 204.743 44.0531 204.338C43.7437 203.922 43.5731 203.447 43.5411 202.914H45.0451C45.0877 203.351 45.2904 203.709 45.6531 203.986C46.0264 204.263 46.5117 204.402 47.1091 204.402C47.6637 204.402 48.1011 204.279 48.4211 204.034C48.7411 203.789 48.9011 203.479 48.9011 203.106C48.9011 202.722 48.7304 202.439 48.3891 202.258C48.0477 202.066 47.5197 201.879 46.8051 201.698C46.1544 201.527 45.6211 201.357 45.2051 201.186C44.7997 201.005 44.4477 200.743 44.1491 200.402C43.8611 200.05 43.7171 199.591 43.7171 199.026C43.7171 198.578 43.8504 198.167 44.1171 197.794C44.3837 197.421 44.7624 197.127 45.2531 196.914C45.7437 196.69 46.3037 196.578 46.9331 196.578C47.9037 196.578 48.6877 196.823 49.2851 197.314C49.8824 197.805 50.2024 198.477 50.2451 199.33H48.7891C48.7571 198.871 48.5704 198.503 48.2291 198.226C47.8984 197.949 47.4504 197.81 46.8851 197.81C46.3624 197.81 45.9464 197.922 45.6371 198.146C45.3277 198.37 45.1731 198.663 45.1731 199.026C45.1731 199.314 45.2637 199.554 45.4451 199.746C45.6371 199.927 45.8717 200.077 46.1491 200.194C46.4371 200.301 46.8317 200.423 47.3331 200.562C47.9624 200.733 48.4744 200.903 48.8691 201.074C49.2637 201.234 49.5997 201.479 49.8771 201.81C50.1651 202.141 50.3144 202.573 50.3251 203.106C50.3251 203.586 50.1917 204.018 49.9251 204.402C49.6584 204.786 49.2797 205.09 48.7891 205.314C48.3091 205.527 47.7544 205.634 47.1251 205.634ZM55.4844 205.634C54.8124 205.634 54.2098 205.522 53.6764 205.298C53.1431 205.063 52.7218 204.743 52.4124 204.338C52.1031 203.922 51.9324 203.447 51.9004 202.914H53.4044C53.4471 203.351 53.6498 203.709 54.0124 203.986C54.3858 204.263 54.8711 204.402 55.4684 204.402C56.0231 204.402 56.4604 204.279 56.7804 204.034C57.1004 203.789 57.2604 203.479 57.2604 203.106C57.2604 202.722 57.0898 202.439 56.7484 202.258C56.4071 202.066 55.8791 201.879 55.1644 201.698C54.5138 201.527 53.9804 201.357 53.5644 201.186C53.1591 201.005 52.8071 200.743 52.5084 200.402C52.2204 200.05 52.0764 199.591 52.0764 199.026C52.0764 198.578 52.2098 198.167 52.4764 197.794C52.7431 197.421 53.1218 197.127 53.6124 196.914C54.1031 196.69 54.6631 196.578 55.2924 196.578C56.2631 196.578 57.0471 196.823 57.6444 197.314C58.2418 197.805 58.5618 198.477 58.6044 199.33H57.1484C57.1164 198.871 56.9298 198.503 56.5884 198.226C56.2578 197.949 55.8098 197.81 55.2444 197.81C54.7218 197.81 54.3058 197.922 53.9964 198.146C53.6871 198.37 53.5324 198.663 53.5324 199.026C53.5324 199.314 53.6231 199.554 53.8044 199.746C53.9964 199.927 54.2311 200.077 54.5084 200.194C54.7964 200.301 55.1911 200.423 55.6924 200.562C56.3218 200.733 56.8338 200.903 57.2284 201.074C57.6231 201.234 57.9591 201.479 58.2364 201.81C58.5244 202.141 58.6738 202.573 58.6844 203.106C58.6844 203.586 58.5511 204.018 58.2844 204.402C58.0178 204.786 57.6391 205.09 57.1484 205.314C56.6684 205.527 56.1138 205.634 55.4844 205.634ZM61.4918 195.298C61.2145 195.298 60.9798 195.202 60.7878 195.01C60.5958 194.818 60.4998 194.583 60.4998 194.306C60.4998 194.029 60.5958 193.794 60.7878 193.602C60.9798 193.41 61.2145 193.314 61.4918 193.314C61.7585 193.314 61.9825 193.41 62.1638 193.602C62.3558 193.794 62.4518 194.029 62.4518 194.306C62.4518 194.583 62.3558 194.818 62.1638 195.01C61.9825 195.202 61.7585 195.298 61.4918 195.298ZM62.1958 196.722V205.49H60.7398V196.722H62.1958ZM75.2213 196.562C75.904 196.562 76.512 196.706 77.0453 196.994C77.5786 197.271 78 197.693 78.3093 198.258C78.6186 198.823 78.7733 199.511 78.7733 200.322V205.49H77.3333V200.53C77.3333 199.655 77.1146 198.989 76.6773 198.53C76.2506 198.061 75.6693 197.826 74.9333 197.826C74.176 197.826 73.5733 198.071 73.1253 198.562C72.6773 199.042 72.4533 199.741 72.4533 200.658V205.49H71.0133V200.53C71.0133 199.655 70.7946 198.989 70.3573 198.53C69.9306 198.061 69.3493 197.826 68.6133 197.826C67.856 197.826 67.2533 198.071 66.8053 198.562C66.3573 199.042 66.1333 199.741 66.1333 200.658V205.49H64.6773V196.722H66.1333V197.986C66.4213 197.527 66.8053 197.175 67.2853 196.93C67.776 196.685 68.3146 196.562 68.9013 196.562C69.6373 196.562 70.288 196.727 70.8533 197.058C71.4186 197.389 71.84 197.874 72.1173 198.514C72.3626 197.895 72.768 197.415 73.3333 197.074C73.8986 196.733 74.528 196.562 75.2213 196.562ZM81.6257 205.586C81.3484 205.586 81.1137 205.49 80.9217 205.298C80.7297 205.106 80.6337 204.871 80.6337 204.594C80.6337 204.317 80.7297 204.082 80.9217 203.89C81.1137 203.698 81.3484 203.602 81.6257 203.602C81.8924 203.602 82.1164 203.698 82.2977 203.89C82.4897 204.082 82.5857 204.317 82.5857 204.594C82.5857 204.871 82.4897 205.106 82.2977 205.298C82.1164 205.49 81.8924 205.586 81.6257 205.586ZM97.5547 205.49H96.0987L90.2427 196.61V205.49H88.7867V194.322H90.2427L96.0987 203.186V194.322H97.5547V205.49ZM107.813 196.722V205.49H106.357V204.194C106.079 204.642 105.69 204.994 105.189 205.25C104.698 205.495 104.154 205.618 103.557 205.618C102.874 205.618 102.261 205.479 101.717 205.202C101.173 204.914 100.741 204.487 100.421 203.922C100.111 203.357 99.9567 202.669 99.9567 201.858V196.722H101.397V201.666C101.397 202.53 101.615 203.197 102.053 203.666C102.49 204.125 103.087 204.354 103.845 204.354C104.623 204.354 105.237 204.114 105.685 203.634C106.133 203.154 106.357 202.455 106.357 201.538V196.722H107.813ZM111.727 193.65V205.49H110.271V193.65H111.727ZM115.665 193.65V205.49H114.209V193.65H115.665ZM117.602 201.074C117.602 200.178 117.783 199.394 118.146 198.722C118.509 198.039 119.005 197.511 119.634 197.138C120.274 196.765 120.983 196.578 121.762 196.578C122.53 196.578 123.197 196.743 123.762 197.074C124.327 197.405 124.749 197.821 125.026 198.322V196.722H126.498V205.49H125.026V203.858C124.738 204.37 124.306 204.797 123.73 205.138C123.165 205.469 122.503 205.634 121.746 205.634C120.967 205.634 120.263 205.442 119.634 205.058C119.005 204.674 118.509 204.135 118.146 203.442C117.783 202.749 117.602 201.959 117.602 201.074ZM125.026 201.09C125.026 200.429 124.893 199.853 124.626 199.362C124.359 198.871 123.997 198.498 123.538 198.242C123.09 197.975 122.594 197.842 122.05 197.842C121.506 197.842 121.01 197.97 120.562 198.226C120.114 198.482 119.757 198.855 119.49 199.346C119.223 199.837 119.09 200.413 119.09 201.074C119.09 201.746 119.223 202.333 119.49 202.834C119.757 203.325 120.114 203.703 120.562 203.97C121.01 204.226 121.506 204.354 122.05 204.354C122.594 204.354 123.09 204.226 123.538 203.97C123.997 203.703 124.359 203.325 124.626 202.834C124.893 202.333 125.026 201.751 125.026 201.09ZM139.503 196.562C140.185 196.562 140.793 196.706 141.327 196.994C141.86 197.271 142.281 197.693 142.591 198.258C142.9 198.823 143.055 199.511 143.055 200.322V205.49H141.615V200.53C141.615 199.655 141.396 198.989 140.959 198.53C140.532 198.061 139.951 197.826 139.215 197.826C138.457 197.826 137.855 198.071 137.407 198.562C136.959 199.042 136.735 199.741 136.735 200.658V205.49H135.295V200.53C135.295 199.655 135.076 198.989 134.639 198.53C134.212 198.061 133.631 197.826 132.895 197.826C132.137 197.826 131.535 198.071 131.087 198.562C130.639 199.042 130.415 199.741 130.415 200.658V205.49H128.959V196.722H130.415V197.986C130.703 197.527 131.087 197.175 131.567 196.93C132.057 196.685 132.596 196.562 133.183 196.562C133.919 196.562 134.569 196.727 135.135 197.058C135.7 197.389 136.121 197.874 136.399 198.514C136.644 197.895 137.049 197.415 137.615 197.074C138.18 196.733 138.809 196.562 139.503 196.562ZM149.165 201.074C149.165 200.178 149.346 199.394 149.709 198.722C150.071 198.039 150.567 197.511 151.197 197.138C151.837 196.765 152.546 196.578 153.325 196.578C154.093 196.578 154.759 196.743 155.325 197.074C155.89 197.405 156.311 197.821 156.589 198.322V196.722H158.061V205.49H156.589V203.858C156.301 204.37 155.869 204.797 155.293 205.138C154.727 205.469 154.066 205.634 153.309 205.634C152.53 205.634 151.826 205.442 151.197 205.058C150.567 204.674 150.071 204.135 149.709 203.442C149.346 202.749 149.165 201.959 149.165 201.074ZM156.589 201.09C156.589 200.429 156.455 199.853 156.189 199.362C155.922 198.871 155.559 198.498 155.101 198.242C154.653 197.975 154.157 197.842 153.613 197.842C153.069 197.842 152.573 197.97 152.125 198.226C151.677 198.482 151.319 198.855 151.053 199.346C150.786 199.837 150.653 200.413 150.653 201.074C150.653 201.746 150.786 202.333 151.053 202.834C151.319 203.325 151.677 203.703 152.125 203.97C152.573 204.226 153.069 204.354 153.613 204.354C154.157 204.354 154.653 204.226 155.101 203.97C155.559 203.703 155.922 203.325 156.189 202.834C156.455 202.333 156.589 201.751 156.589 201.09ZM166.243 193.65V205.49H164.787V193.65H166.243ZM168.18 201.074C168.18 200.178 168.362 199.394 168.724 198.722C169.087 198.039 169.583 197.511 170.212 197.138C170.852 196.765 171.562 196.578 172.34 196.578C173.108 196.578 173.775 196.743 174.34 197.074C174.906 197.405 175.327 197.821 175.604 198.322V196.722H177.076V205.49H175.604V203.858C175.316 204.37 174.884 204.797 174.308 205.138C173.743 205.469 173.082 205.634 172.324 205.634C171.546 205.634 170.842 205.442 170.212 205.058C169.583 204.674 169.087 204.135 168.724 203.442C168.362 202.749 168.18 201.959 168.18 201.074ZM175.604 201.09C175.604 200.429 175.471 199.853 175.204 199.362C174.938 198.871 174.575 198.498 174.116 198.242C173.668 197.975 173.172 197.842 172.628 197.842C172.084 197.842 171.588 197.97 171.14 198.226C170.692 198.482 170.335 198.855 170.068 199.346C169.802 199.837 169.668 200.413 169.668 201.074C169.668 201.746 169.802 202.333 170.068 202.834C170.335 203.325 170.692 203.703 171.14 203.97C171.588 204.226 172.084 204.354 172.628 204.354C173.172 204.354 173.668 204.226 174.116 203.97C174.575 203.703 174.938 203.325 175.204 202.834C175.471 202.333 175.604 201.751 175.604 201.09ZM178.993 201.09C178.993 200.183 179.174 199.394 179.537 198.722C179.899 198.039 180.401 197.511 181.041 197.138C181.691 196.765 182.433 196.578 183.265 196.578C184.342 196.578 185.227 196.839 185.921 197.362C186.625 197.885 187.089 198.61 187.313 199.538H185.745C185.595 199.005 185.302 198.583 184.865 198.274C184.438 197.965 183.905 197.81 183.265 197.81C182.433 197.81 181.761 198.098 181.249 198.674C180.737 199.239 180.481 200.045 180.481 201.09C180.481 202.146 180.737 202.962 181.249 203.538C181.761 204.114 182.433 204.402 183.265 204.402C183.905 204.402 184.438 204.253 184.865 203.954C185.291 203.655 185.585 203.229 185.745 202.674H187.313C187.078 203.57 186.609 204.29 185.905 204.834C185.201 205.367 184.321 205.634 183.265 205.634C182.433 205.634 181.691 205.447 181.041 205.074C180.401 204.701 179.899 204.173 179.537 203.49C179.174 202.807 178.993 202.007 178.993 201.09ZM190.007 195.298C189.73 195.298 189.495 195.202 189.303 195.01C189.111 194.818 189.015 194.583 189.015 194.306C189.015 194.029 189.111 193.794 189.303 193.602C189.495 193.41 189.73 193.314 190.007 193.314C190.274 193.314 190.498 193.41 190.679 193.602C190.871 193.794 190.967 194.029 190.967 194.306C190.967 194.583 190.871 194.818 190.679 195.01C190.498 195.202 190.274 195.298 190.007 195.298ZM190.711 196.722V205.49H189.255V196.722H190.711ZM197.465 196.562C198.532 196.562 199.396 196.887 200.057 197.538C200.718 198.178 201.049 199.106 201.049 200.322V205.49H199.609V200.53C199.609 199.655 199.39 198.989 198.953 198.53C198.516 198.061 197.918 197.826 197.161 197.826C196.393 197.826 195.78 198.066 195.321 198.546C194.873 199.026 194.649 199.725 194.649 200.642V205.49H193.193V196.722H194.649V197.97C194.937 197.522 195.326 197.175 195.817 196.93C196.318 196.685 196.868 196.562 197.465 196.562ZM204.179 195.298C203.902 195.298 203.667 195.202 203.475 195.01C203.283 194.818 203.187 194.583 203.187 194.306C203.187 194.029 203.283 193.794 203.475 193.602C203.667 193.41 203.902 193.314 204.179 193.314C204.446 193.314 204.67 193.41 204.851 193.602C205.043 193.794 205.139 194.029 205.139 194.306C205.139 194.583 205.043 194.818 204.851 195.01C204.67 195.202 204.446 195.298 204.179 195.298ZM204.883 196.722V205.49H203.427V196.722H204.883ZM206.821 201.074C206.821 200.178 207.002 199.394 207.365 198.722C207.727 198.039 208.223 197.511 208.853 197.138C209.493 196.765 210.202 196.578 210.981 196.578C211.749 196.578 212.415 196.743 212.981 197.074C213.546 197.405 213.967 197.821 214.245 198.322V196.722H215.717V205.49H214.245V203.858C213.957 204.37 213.525 204.797 212.949 205.138C212.383 205.469 211.722 205.634 210.965 205.634C210.186 205.634 209.482 205.442 208.853 205.058C208.223 204.674 207.727 204.135 207.365 203.442C207.002 202.749 206.821 201.959 206.821 201.074ZM214.245 201.09C214.245 200.429 214.111 199.853 213.845 199.362C213.578 198.871 213.215 198.498 212.757 198.242C212.309 197.975 211.813 197.842 211.269 197.842C210.725 197.842 210.229 197.97 209.781 198.226C209.333 198.482 208.975 198.855 208.709 199.346C208.442 199.837 208.309 200.413 208.309 201.074C208.309 201.746 208.442 202.333 208.709 202.834C208.975 203.325 209.333 203.703 209.781 203.97C210.229 204.226 210.725 204.354 211.269 204.354C211.813 204.354 212.309 204.226 212.757 203.97C213.215 203.703 213.578 203.325 213.845 202.834C214.111 202.333 214.245 201.751 214.245 201.09ZM27.8434 221.298C27.566 221.298 27.3314 221.202 27.1394 221.01C26.9474 220.818 26.8514 220.583 26.8514 220.306C26.8514 220.029 26.9474 219.794 27.1394 219.602C27.3314 219.41 27.566 219.314 27.8434 219.314C28.11 219.314 28.334 219.41 28.5154 219.602C28.7074 219.794 28.8034 220.029 28.8034 220.306C28.8034 220.583 28.7074 220.818 28.5154 221.01C28.334 221.202 28.11 221.298 27.8434 221.298ZM28.5474 222.722V231.49H27.0914V222.722H28.5474ZM32.4849 224.338C32.7729 223.837 33.1995 223.421 33.7649 223.09C34.3409 222.749 35.0075 222.578 35.7649 222.578C36.5435 222.578 37.2475 222.765 37.8769 223.138C38.5169 223.511 39.0182 224.039 39.3809 224.722C39.7435 225.394 39.9249 226.178 39.9249 227.074C39.9249 227.959 39.7435 228.749 39.3809 229.442C39.0182 230.135 38.5169 230.674 37.8769 231.058C37.2475 231.442 36.5435 231.634 35.7649 231.634C35.0182 231.634 34.3569 231.469 33.7809 231.138C33.2155 230.797 32.7835 230.375 32.4849 229.874V235.65H31.0289V222.722H32.4849V224.338ZM38.4369 227.074C38.4369 226.413 38.3035 225.837 38.0369 225.346C37.7702 224.855 37.4075 224.482 36.9489 224.226C36.5009 223.97 36.0049 223.842 35.4609 223.842C34.9275 223.842 34.4315 223.975 33.9729 224.242C33.5249 224.498 33.1622 224.877 32.8849 225.378C32.6182 225.869 32.4849 226.439 32.4849 227.09C32.4849 227.751 32.6182 228.333 32.8849 228.834C33.1622 229.325 33.5249 229.703 33.9729 229.97C34.4315 230.226 34.9275 230.354 35.4609 230.354C36.0049 230.354 36.5009 230.226 36.9489 229.97C37.4075 229.703 37.7702 229.325 38.0369 228.834C38.3035 228.333 38.4369 227.746 38.4369 227.074ZM44.9454 231.634C44.2734 231.634 43.6707 231.522 43.1374 231.298C42.604 231.063 42.1827 230.743 41.8734 230.338C41.564 229.922 41.3934 229.447 41.3614 228.914H42.8654C42.908 229.351 43.1107 229.709 43.4734 229.986C43.8467 230.263 44.332 230.402 44.9294 230.402C45.484 230.402 45.9214 230.279 46.2414 230.034C46.5614 229.789 46.7214 229.479 46.7214 229.106C46.7214 228.722 46.5507 228.439 46.2094 228.258C45.868 228.066 45.34 227.879 44.6254 227.698C43.9747 227.527 43.4414 227.357 43.0254 227.186C42.62 227.005 42.268 226.743 41.9694 226.402C41.6814 226.05 41.5374 225.591 41.5374 225.026C41.5374 224.578 41.6707 224.167 41.9374 223.794C42.204 223.421 42.5827 223.127 43.0734 222.914C43.564 222.69 44.124 222.578 44.7534 222.578C45.724 222.578 46.508 222.823 47.1054 223.314C47.7027 223.805 48.0227 224.477 48.0654 225.33H46.6094C46.5774 224.871 46.3907 224.503 46.0494 224.226C45.7187 223.949 45.2707 223.81 44.7054 223.81C44.1827 223.81 43.7667 223.922 43.4574 224.146C43.148 224.37 42.9934 224.663 42.9934 225.026C42.9934 225.314 43.084 225.554 43.2654 225.746C43.4574 225.927 43.692 226.077 43.9694 226.194C44.2574 226.301 44.652 226.423 45.1534 226.562C45.7827 226.733 46.2947 226.903 46.6894 227.074C47.084 227.234 47.42 227.479 47.6974 227.81C47.9854 228.141 48.1347 228.573 48.1454 229.106C48.1454 229.586 48.012 230.018 47.7454 230.402C47.4787 230.786 47.1 231.09 46.6094 231.314C46.1294 231.527 45.5747 231.634 44.9454 231.634ZM57.9768 222.722V231.49H56.5208V230.194C56.2434 230.642 55.8541 230.994 55.3528 231.25C54.8621 231.495 54.3181 231.618 53.7208 231.618C53.0381 231.618 52.4248 231.479 51.8808 231.202C51.3368 230.914 50.9048 230.487 50.5848 229.922C50.2754 229.357 50.1208 228.669 50.1208 227.858V222.722H51.5608V227.666C51.5608 228.53 51.7794 229.197 52.2168 229.666C52.6541 230.125 53.2514 230.354 54.0088 230.354C54.7874 230.354 55.4008 230.114 55.8488 229.634C56.2968 229.154 56.5208 228.455 56.5208 227.538V222.722H57.9768ZM70.9791 222.562C71.6618 222.562 72.2698 222.706 72.8031 222.994C73.3365 223.271 73.7578 223.693 74.0671 224.258C74.3765 224.823 74.5311 225.511 74.5311 226.322V231.49H73.0911V226.53C73.0911 225.655 72.8725 224.989 72.4351 224.53C72.0085 224.061 71.4271 223.826 70.6911 223.826C69.9338 223.826 69.3311 224.071 68.8831 224.562C68.4351 225.042 68.2111 225.741 68.2111 226.658V231.49H66.7711V226.53C66.7711 225.655 66.5525 224.989 66.1151 224.53C65.6885 224.061 65.1071 223.826 64.3711 223.826C63.6138 223.826 63.0111 224.071 62.5631 224.562C62.1151 225.042 61.8911 225.741 61.8911 226.658V231.49H60.4351V222.722H61.8911V223.986C62.1791 223.527 62.5631 223.175 63.0431 222.93C63.5338 222.685 64.0725 222.562 64.6591 222.562C65.3951 222.562 66.0458 222.727 66.6111 223.058C67.1765 223.389 67.5978 223.874 67.8751 224.514C68.1205 223.895 68.5258 223.415 69.0911 223.074C69.6565 222.733 70.2858 222.562 70.9791 222.562ZM78.4235 229.474L76.6315 233.778H75.6555L76.8235 229.474H78.4235ZM88.629 222.562C89.6957 222.562 90.5597 222.887 91.221 223.538C91.8823 224.178 92.213 225.106 92.213 226.322V231.49H90.773V226.53C90.773 225.655 90.5543 224.989 90.117 224.53C89.6797 224.061 89.0823 223.826 88.325 223.826C87.557 223.826 86.9437 224.066 86.485 224.546C86.037 225.026 85.813 225.725 85.813 226.642V231.49H84.357V222.722H85.813V223.97C86.101 223.522 86.4903 223.175 86.981 222.93C87.4823 222.685 88.0317 222.562 88.629 222.562ZM102.591 226.77C102.591 227.047 102.575 227.341 102.543 227.65H95.5354C95.5887 228.514 95.882 229.191 96.4154 229.682C96.9594 230.162 97.6154 230.402 98.3834 230.402C99.0127 230.402 99.5354 230.258 99.9514 229.97C100.378 229.671 100.677 229.277 100.847 228.786H102.415C102.181 229.629 101.711 230.317 101.007 230.85C100.303 231.373 99.4287 231.634 98.3834 231.634C97.5514 231.634 96.8047 231.447 96.1434 231.074C95.4927 230.701 94.9807 230.173 94.6074 229.49C94.234 228.797 94.0474 227.997 94.0474 227.09C94.0474 226.183 94.2287 225.389 94.5914 224.706C94.954 224.023 95.4607 223.501 96.1114 223.138C96.7727 222.765 97.53 222.578 98.3834 222.578C99.2154 222.578 99.9514 222.759 100.591 223.122C101.231 223.485 101.722 223.986 102.063 224.626C102.415 225.255 102.591 225.97 102.591 226.77ZM101.087 226.466C101.087 225.911 100.965 225.437 100.719 225.042C100.474 224.637 100.138 224.333 99.7114 224.13C99.2954 223.917 98.8314 223.81 98.3194 223.81C97.5834 223.81 96.954 224.045 96.4314 224.514C95.9194 224.983 95.626 225.634 95.5514 226.466H101.087ZM103.969 227.09C103.969 226.183 104.151 225.394 104.513 224.722C104.876 224.039 105.377 223.511 106.017 223.138C106.668 222.765 107.409 222.578 108.241 222.578C109.319 222.578 110.204 222.839 110.897 223.362C111.601 223.885 112.065 224.61 112.289 225.538H110.721C110.572 225.005 110.279 224.583 109.841 224.274C109.415 223.965 108.881 223.81 108.241 223.81C107.409 223.81 106.737 224.098 106.225 224.674C105.713 225.239 105.457 226.045 105.457 227.09C105.457 228.146 105.713 228.962 106.225 229.538C106.737 230.114 107.409 230.402 108.241 230.402C108.881 230.402 109.415 230.253 109.841 229.954C110.268 229.655 110.561 229.229 110.721 228.674H112.289C112.055 229.57 111.585 230.29 110.881 230.834C110.177 231.367 109.297 231.634 108.241 231.634C107.409 231.634 106.668 231.447 106.017 231.074C105.377 230.701 104.876 230.173 104.513 229.49C104.151 228.807 103.969 228.007 103.969 227.09ZM117.954 227.074C117.954 226.178 118.135 225.394 118.498 224.722C118.86 224.039 119.356 223.511 119.986 223.138C120.626 222.765 121.34 222.578 122.13 222.578C122.812 222.578 123.447 222.738 124.034 223.058C124.62 223.367 125.068 223.778 125.378 224.29V219.65H126.85V231.49H125.378V229.842C125.09 230.365 124.663 230.797 124.098 231.138C123.532 231.469 122.871 231.634 122.114 231.634C121.335 231.634 120.626 231.442 119.986 231.058C119.356 230.674 118.86 230.135 118.498 229.442C118.135 228.749 117.954 227.959 117.954 227.074ZM125.378 227.09C125.378 226.429 125.244 225.853 124.978 225.362C124.711 224.871 124.348 224.498 123.89 224.242C123.442 223.975 122.946 223.842 122.402 223.842C121.858 223.842 121.362 223.97 120.914 224.226C120.466 224.482 120.108 224.855 119.842 225.346C119.575 225.837 119.442 226.413 119.442 227.074C119.442 227.746 119.575 228.333 119.842 228.834C120.108 229.325 120.466 229.703 120.914 229.97C121.362 230.226 121.858 230.354 122.402 230.354C122.946 230.354 123.442 230.226 123.89 229.97C124.348 229.703 124.711 229.325 124.978 228.834C125.244 228.333 125.378 227.751 125.378 227.09ZM130.062 221.298C129.785 221.298 129.55 221.202 129.358 221.01C129.166 220.818 129.07 220.583 129.07 220.306C129.07 220.029 129.166 219.794 129.358 219.602C129.55 219.41 129.785 219.314 130.062 219.314C130.329 219.314 130.553 219.41 130.734 219.602C130.926 219.794 131.022 220.029 131.022 220.306C131.022 220.583 130.926 220.818 130.734 221.01C130.553 221.202 130.329 221.298 130.062 221.298ZM130.766 222.722V231.49H129.31V222.722H130.766ZM136.864 222.578C137.621 222.578 138.282 222.743 138.848 223.074C139.424 223.405 139.85 223.821 140.128 224.322V222.722H141.6V231.682C141.6 232.482 141.429 233.191 141.088 233.81C140.746 234.439 140.256 234.93 139.616 235.282C138.986 235.634 138.25 235.81 137.408 235.81C136.256 235.81 135.296 235.538 134.528 234.994C133.76 234.45 133.306 233.709 133.168 232.77H134.608C134.768 233.303 135.098 233.73 135.6 234.05C136.101 234.381 136.704 234.546 137.408 234.546C138.208 234.546 138.858 234.295 139.36 233.794C139.872 233.293 140.128 232.589 140.128 231.682V229.842C139.84 230.354 139.413 230.781 138.848 231.122C138.282 231.463 137.621 231.634 136.864 231.634C136.085 231.634 135.376 231.442 134.736 231.058C134.106 230.674 133.61 230.135 133.248 229.442C132.885 228.749 132.704 227.959 132.704 227.074C132.704 226.178 132.885 225.394 133.248 224.722C133.61 224.039 134.106 223.511 134.736 223.138C135.376 222.765 136.085 222.578 136.864 222.578ZM140.128 227.09C140.128 226.429 139.994 225.853 139.728 225.362C139.461 224.871 139.098 224.498 138.64 224.242C138.192 223.975 137.696 223.842 137.152 223.842C136.608 223.842 136.112 223.97 135.664 224.226C135.216 224.482 134.858 224.855 134.592 225.346C134.325 225.837 134.192 226.413 134.192 227.074C134.192 227.746 134.325 228.333 134.592 228.834C134.858 229.325 135.216 229.703 135.664 229.97C136.112 230.226 136.608 230.354 137.152 230.354C137.696 230.354 138.192 230.226 138.64 229.97C139.098 229.703 139.461 229.325 139.728 228.834C139.994 228.333 140.128 227.751 140.128 227.09ZM148.332 222.562C149.399 222.562 150.263 222.887 150.924 223.538C151.585 224.178 151.916 225.106 151.916 226.322V231.49H150.476V226.53C150.476 225.655 150.257 224.989 149.82 224.53C149.383 224.061 148.785 223.826 148.028 223.826C147.26 223.826 146.647 224.066 146.188 224.546C145.74 225.026 145.516 225.725 145.516 226.642V231.49H144.06V222.722H145.516V223.97C145.804 223.522 146.193 223.175 146.684 222.93C147.185 222.685 147.735 222.562 148.332 222.562ZM155.047 221.298C154.769 221.298 154.535 221.202 154.343 221.01C154.151 220.818 154.055 220.583 154.055 220.306C154.055 220.029 154.151 219.794 154.343 219.602C154.535 219.41 154.769 219.314 155.047 219.314C155.313 219.314 155.537 219.41 155.719 219.602C155.911 219.794 156.007 220.029 156.007 220.306C156.007 220.583 155.911 220.818 155.719 221.01C155.537 221.202 155.313 221.298 155.047 221.298ZM155.751 222.722V231.49H154.295V222.722H155.751ZM161.336 231.634C160.664 231.634 160.061 231.522 159.528 231.298C158.995 231.063 158.573 230.743 158.264 230.338C157.955 229.922 157.784 229.447 157.752 228.914H159.256C159.299 229.351 159.501 229.709 159.864 229.986C160.237 230.263 160.723 230.402 161.32 230.402C161.875 230.402 162.312 230.279 162.632 230.034C162.952 229.789 163.112 229.479 163.112 229.106C163.112 228.722 162.941 228.439 162.6 228.258C162.259 228.066 161.731 227.879 161.016 227.698C160.365 227.527 159.832 227.357 159.416 227.186C159.011 227.005 158.659 226.743 158.36 226.402C158.072 226.05 157.928 225.591 157.928 225.026C157.928 224.578 158.061 224.167 158.328 223.794C158.595 223.421 158.973 223.127 159.464 222.914C159.955 222.69 160.515 222.578 161.144 222.578C162.115 222.578 162.899 222.823 163.496 223.314C164.093 223.805 164.413 224.477 164.456 225.33H163C162.968 224.871 162.781 224.503 162.44 224.226C162.109 223.949 161.661 223.81 161.096 223.81C160.573 223.81 160.157 223.922 159.848 224.146C159.539 224.37 159.384 224.663 159.384 225.026C159.384 225.314 159.475 225.554 159.656 225.746C159.848 225.927 160.083 226.077 160.36 226.194C160.648 226.301 161.043 226.423 161.544 226.562C162.173 226.733 162.685 226.903 163.08 227.074C163.475 227.234 163.811 227.479 164.088 227.81C164.376 228.141 164.525 228.573 164.536 229.106C164.536 229.586 164.403 230.018 164.136 230.402C163.869 230.786 163.491 231.09 163 231.314C162.52 231.527 161.965 231.634 161.336 231.634ZM169.695 231.634C169.023 231.634 168.421 231.522 167.887 231.298C167.354 231.063 166.933 230.743 166.623 230.338C166.314 229.922 166.143 229.447 166.111 228.914H167.615C167.658 229.351 167.861 229.709 168.223 229.986C168.597 230.263 169.082 230.402 169.679 230.402C170.234 230.402 170.671 230.279 170.991 230.034C171.311 229.789 171.471 229.479 171.471 229.106C171.471 228.722 171.301 228.439 170.959 228.258C170.618 228.066 170.09 227.879 169.375 227.698C168.725 227.527 168.191 227.357 167.775 227.186C167.37 227.005 167.018 226.743 166.719 226.402C166.431 226.05 166.287 225.591 166.287 225.026C166.287 224.578 166.421 224.167 166.687 223.794C166.954 223.421 167.333 223.127 167.823 222.914C168.314 222.69 168.874 222.578 169.503 222.578C170.474 222.578 171.258 222.823 171.855 223.314C172.453 223.805 172.773 224.477 172.815 225.33H171.359C171.327 224.871 171.141 224.503 170.799 224.226C170.469 223.949 170.021 223.81 169.455 223.81C168.933 223.81 168.517 223.922 168.207 224.146C167.898 224.37 167.743 224.663 167.743 225.026C167.743 225.314 167.834 225.554 168.015 225.746C168.207 225.927 168.442 226.077 168.719 226.194C169.007 226.301 169.402 226.423 169.903 226.562C170.533 226.733 171.045 226.903 171.439 227.074C171.834 227.234 172.17 227.479 172.447 227.81C172.735 228.141 172.885 228.573 172.895 229.106C172.895 229.586 172.762 230.018 172.495 230.402C172.229 230.786 171.85 231.09 171.359 231.314C170.879 231.527 170.325 231.634 169.695 231.634ZM175.703 221.298C175.425 221.298 175.191 221.202 174.999 221.01C174.807 220.818 174.711 220.583 174.711 220.306C174.711 220.029 174.807 219.794 174.999 219.602C175.191 219.41 175.425 219.314 175.703 219.314C175.969 219.314 176.193 219.41 176.375 219.602C176.567 219.794 176.663 220.029 176.663 220.306C176.663 220.583 176.567 220.818 176.375 221.01C176.193 221.202 175.969 221.298 175.703 221.298ZM176.407 222.722V231.49H174.951V222.722H176.407ZM189.432 222.562C190.115 222.562 190.723 222.706 191.256 222.994C191.79 223.271 192.211 223.693 192.52 224.258C192.83 224.823 192.984 225.511 192.984 226.322V231.49H191.544V226.53C191.544 225.655 191.326 224.989 190.888 224.53C190.462 224.061 189.88 223.826 189.144 223.826C188.387 223.826 187.784 224.071 187.336 224.562C186.888 225.042 186.664 225.741 186.664 226.658V231.49H185.224V226.53C185.224 225.655 185.006 224.989 184.568 224.53C184.142 224.061 183.56 223.826 182.824 223.826C182.067 223.826 181.464 224.071 181.016 224.562C180.568 225.042 180.344 225.741 180.344 226.658V231.49H178.888V222.722H180.344V223.986C180.632 223.527 181.016 223.175 181.496 222.93C181.987 222.685 182.526 222.562 183.112 222.562C183.848 222.562 184.499 222.727 185.064 223.058C185.63 223.389 186.051 223.874 186.328 224.514C186.574 223.895 186.979 223.415 187.544 223.074C188.11 222.733 188.739 222.562 189.432 222.562ZM88.2036 250.338C88.4916 249.837 88.9183 249.421 89.4836 249.09C90.0596 248.749 90.7263 248.578 91.4836 248.578C92.2623 248.578 92.9663 248.765 93.5956 249.138C94.2356 249.511 94.737 250.039 95.0996 250.722C95.4623 251.394 95.6436 252.178 95.6436 253.074C95.6436 253.959 95.4623 254.749 95.0996 255.442C94.737 256.135 94.2356 256.674 93.5956 257.058C92.9663 257.442 92.2623 257.634 91.4836 257.634C90.737 257.634 90.0756 257.469 89.4996 257.138C88.9343 256.797 88.5023 256.375 88.2036 255.874V261.65H86.7476V248.722H88.2036V250.338ZM94.1556 253.074C94.1556 252.413 94.0223 251.837 93.7556 251.346C93.489 250.855 93.1263 250.482 92.6676 250.226C92.2196 249.97 91.7236 249.842 91.1796 249.842C90.6463 249.842 90.1503 249.975 89.6916 250.242C89.2436 250.498 88.881 250.877 88.6036 251.378C88.337 251.869 88.2036 252.439 88.2036 253.09C88.2036 253.751 88.337 254.333 88.6036 254.834C88.881 255.325 89.2436 255.703 89.6916 255.97C90.1503 256.226 90.6463 256.354 91.1796 256.354C91.7236 256.354 92.2196 256.226 92.6676 255.97C93.1263 255.703 93.489 255.325 93.7556 254.834C94.0223 254.333 94.1556 253.746 94.1556 253.074ZM105.336 248.722V257.49H103.88V256.194C103.603 256.642 103.213 256.994 102.712 257.25C102.221 257.495 101.677 257.618 101.08 257.618C100.397 257.618 99.7841 257.479 99.2401 257.202C98.6961 256.914 98.2641 256.487 97.9441 255.922C97.6348 255.357 97.4801 254.669 97.4801 253.858V248.722H98.9201V253.666C98.9201 254.53 99.1388 255.197 99.5761 255.666C100.013 256.125 100.611 256.354 101.368 256.354C102.147 256.354 102.76 256.114 103.208 255.634C103.656 255.154 103.88 254.455 103.88 253.538V248.722H105.336ZM109.251 250.146C109.507 249.645 109.869 249.255 110.339 248.978C110.819 248.701 111.4 248.562 112.083 248.562V250.066H111.699C110.067 250.066 109.251 250.951 109.251 252.722V257.49H107.795V248.722H109.251V250.146ZM121.539 248.722V257.49H120.083V256.194C119.806 256.642 119.417 256.994 118.915 257.25C118.425 257.495 117.881 257.618 117.283 257.618C116.601 257.618 115.987 257.479 115.443 257.202C114.899 256.914 114.467 256.487 114.147 255.922C113.838 255.357 113.683 254.669 113.683 253.858V248.722H115.123V253.666C115.123 254.53 115.342 255.197 115.779 255.666C116.217 256.125 116.814 256.354 117.571 256.354C118.35 256.354 118.963 256.114 119.411 255.634C119.859 255.154 120.083 254.455 120.083 253.538V248.722H121.539ZM127.102 257.634C126.43 257.634 125.827 257.522 125.294 257.298C124.76 257.063 124.339 256.743 124.03 256.338C123.72 255.922 123.55 255.447 123.518 254.914H125.022C125.064 255.351 125.267 255.709 125.63 255.986C126.003 256.263 126.488 256.402 127.086 256.402C127.64 256.402 128.078 256.279 128.398 256.034C128.718 255.789 128.878 255.479 128.878 255.106C128.878 254.722 128.707 254.439 128.366 254.258C128.024 254.066 127.496 253.879 126.782 253.698C126.131 253.527 125.598 253.357 125.182 253.186C124.776 253.005 124.424 252.743 124.126 252.402C123.838 252.05 123.694 251.591 123.694 251.026C123.694 250.578 123.827 250.167 124.094 249.794C124.36 249.421 124.739 249.127 125.23 248.914C125.72 248.69 126.28 248.578 126.91 248.578C127.88 248.578 128.664 248.823 129.262 249.314C129.859 249.805 130.179 250.477 130.222 251.33H128.766C128.734 250.871 128.547 250.503 128.206 250.226C127.875 249.949 127.427 249.81 126.862 249.81C126.339 249.81 125.923 249.922 125.614 250.146C125.304 250.37 125.15 250.663 125.15 251.026C125.15 251.314 125.24 251.554 125.422 251.746C125.614 251.927 125.848 252.077 126.126 252.194C126.414 252.301 126.808 252.423 127.31 252.562C127.939 252.733 128.451 252.903 128.846 253.074C129.24 253.234 129.576 253.479 129.854 253.81C130.142 254.141 130.291 254.573 130.302 255.106C130.302 255.586 130.168 256.018 129.902 256.402C129.635 256.786 129.256 257.09 128.766 257.314C128.286 257.527 127.731 257.634 127.102 257.634ZM132.821 257.586C132.544 257.586 132.309 257.49 132.117 257.298C131.925 257.106 131.829 256.871 131.829 256.594C131.829 256.317 131.925 256.082 132.117 255.89C132.309 255.698 132.544 255.602 132.821 255.602C133.088 255.602 133.312 255.698 133.493 255.89C133.685 256.082 133.781 256.317 133.781 256.594C133.781 256.871 133.685 257.106 133.493 257.298C133.312 257.49 133.088 257.586 132.821 257.586Z" fill="#B4B4B4"/>
<defs>
<filter id="filter0_d_11701_3921" x="44" y="0.48999" width="140" height="140" filterUnits="userSpaceOnUse" color-interpolation-filters="sRGB">
<feFlood flood-opacity="0" result="BackgroundImageFix"/>
<feColorMatrix in="SourceAlpha" type="matrix" values="0 0 0 0 0 0 0 0 0 0 0 0 0 0 0 0 0 0 127 0" result="hardAlpha"/>
<feOffset dx="4" dy="10"/>
<feGaussianBlur stdDeviation="15"/>
<feComposite in2="hardAlpha" operator="out"/>
<feColorMatrix type="matrix" values="0 0 0 0 0.262745 0 0 0 0 0.380392 0 0 0 0 0.933333 0 0 0 0.4 0"/>
<feBlend mode="normal" in2="BackgroundImageFix" result="effect1_dropShadow_11701_3921"/>
<feBlend mode="normal" in="SourceGraphic" in2="effect1_dropShadow_11701_3921" result="shape"/>
</filter>
</defs>
</svg>
