<svg width="26" height="26" viewBox="0 0 26 26" fill="none" xmlns="http://www.w3.org/2000/svg">
<path d="M4.81353 18.5989C3.73091 17.449 3.14966 16.1593 3.14966 14.0687C3.14966 10.3899 5.73218 7.09264 9.48772 5.4624L10.4263 6.9108C6.92096 8.80697 6.23565 11.2676 5.96237 12.819C6.52681 12.5268 7.26572 12.4248 7.98992 12.4921C9.88609 12.6676 11.3807 14.2243 11.3807 16.1593C11.3807 17.135 10.9931 18.0707 10.3032 18.7606C9.61332 19.4506 8.6776 19.8381 7.70192 19.8381C7.16235 19.8334 6.62911 19.7214 6.13324 19.5087C5.63736 19.2959 5.18876 18.9867 4.81353 18.5989ZM15.3244 18.5989C14.2418 17.449 13.6605 16.1593 13.6605 14.0687C13.6605 10.3899 16.2431 7.09264 19.9986 5.4624L20.9372 6.9108C17.4319 8.80697 16.7465 11.2676 16.4733 12.819C17.0377 12.5268 17.7766 12.4248 18.5008 12.4921C20.397 12.6676 21.8916 14.2243 21.8916 16.1593C21.8916 17.135 21.504 18.0707 20.8141 18.7606C20.1242 19.4506 19.1885 19.8381 18.2128 19.8381C17.6732 19.8334 17.14 19.7214 16.6441 19.5087C16.1482 19.2959 15.6996 18.9867 15.3244 18.5989Z" fill="#104D87"/>
</svg>
