<svg width="30" height="30" viewBox="0 0 30 30" fill="none" xmlns="http://www.w3.org/2000/svg">
<g clip-path="url(#clip0_3_3560)">
<path fill-rule="evenodd" clip-rule="evenodd" d="M24.5765 1.01559L23.5077 2.06294L24.8343 3.41791L21.8671 6.33306L23.8148 8.32525L26.789 5.4101L28.1156 6.76502L29.1843 5.71783L24.5765 1.01559ZM20.7759 5.28567L9.75298 16.0814L13.818 20.2343L24.8343 9.43106L20.7759 5.28567ZM11.1885 17.5683L8.76415 19.9414L9.07188 20.2564L1.54259 27.3469L1.16895 28.7461L9.56988 20.7617L9.97254 21.1718L12.3969 18.8061L11.1885 17.5683Z" fill="#C0C0C0" stroke="#202020" stroke-width="1.875" stroke-linecap="round" stroke-linejoin="round"/>
<path fill-rule="evenodd" clip-rule="evenodd" d="M9.22648 20.1134L1.5425 27.3469L1.16846 28.7485L9.70838 20.6232L9.22648 20.1134Z" fill="#C0C0C0"/>
<path d="M24.8371 9.43449L20.7727 5.28619L9.75216 16.0839L13.8166 20.2322L24.8371 9.43449Z" fill="#3B9EFF" stroke="#202020" stroke-width="0.52882" stroke-linecap="round" stroke-linejoin="round"/>
<path d="M27.7256 4.49084L25.7742 2.49915L21.8638 6.3305L23.8152 8.32219L27.7256 4.49084Z" fill="#3B9EFF" stroke="#202020" stroke-width="0.52882" stroke-linecap="round" stroke-linejoin="round"/>
<path d="M29.1868 5.71432L24.5806 1.01306L23.5073 2.06461L28.1135 6.76586L29.1868 5.71432Z" fill="#3B9EFF" stroke="#202020" stroke-width="0.52882" stroke-linecap="round" stroke-linejoin="round"/>
<path d="M12.3947 18.8028L11.1863 17.5695L8.76484 19.9419L9.97324 21.1753L12.3947 18.8028Z" fill="#FF0000" stroke="#202020" stroke-width="0.52882" stroke-linecap="round" stroke-linejoin="round"/>
<path d="M12.8673 13.411L20.4294 13.3829L13.8517 19.9102L10.0291 16.1415L12.8673 13.411Z" fill="#FF0000"/>
<path fill-rule="evenodd" clip-rule="evenodd" d="M15.4578 18.4561C13.5437 16.5025 13.5779 16.5375 13.5779 16.5375L15.4578 18.4561Z" fill="#3B9EFF"/>
<path d="M15.4578 18.4561C13.5437 16.5025 13.5779 16.5375 13.5779 16.5375" stroke="#202020" stroke-width="0.52882" stroke-linecap="round" stroke-linejoin="round"/>
<path fill-rule="evenodd" clip-rule="evenodd" d="M17.4725 16.4822C15.5584 14.5287 15.5926 14.5636 15.5926 14.5636L17.4725 16.4822Z" fill="#3B9EFF"/>
<path d="M17.4725 16.4822C15.5584 14.5287 15.5926 14.5636 15.5926 14.5636" stroke="#202020" stroke-width="0.52882" stroke-linecap="round" stroke-linejoin="round"/>
<path fill-rule="evenodd" clip-rule="evenodd" d="M19.4869 14.5083L17.6072 12.5897L19.4869 14.5083Z" fill="#3B9EFF"/>
<path d="M19.4869 14.5083L17.6072 12.5897" stroke="#202020" stroke-width="0.52882" stroke-linecap="round" stroke-linejoin="round"/>
<path fill-rule="evenodd" clip-rule="evenodd" d="M21.5015 12.5344C19.5874 10.5808 19.6216 10.6158 19.6216 10.6158L21.5015 12.5344Z" fill="#3B9EFF"/>
<path d="M21.5015 12.5344C19.5874 10.5808 19.6216 10.6158 19.6216 10.6158" stroke="#202020" stroke-width="0.52882" stroke-linecap="round" stroke-linejoin="round"/>
</g>
<defs>
<clipPath id="clip0_3_3560">
<rect width="30" height="30" fill="white"/>
</clipPath>
</defs>
</svg>
